<svg width="32" height="32" viewBox="0 0 32 32" fill="none" xmlns="http://www.w3.org/2000/svg">
<rect x="0.75" y="0.75" width="30.5" height="30.5" rx="15.25" stroke="#E40422" stroke-width="1.5"/>
<path d="M13 25.75C12.8519 25.7493 12.7074 25.7047 12.5846 25.622C12.4618 25.5392 12.3663 25.422 12.31 25.285L8.7475 16.75H5.5V15.25H9.25C9.39807 15.2507 9.54261 15.2953 9.6654 15.378C9.78819 15.4608 9.88374 15.578 9.94 15.715L13 22.96L19.045 6.7375C19.0986 6.59395 19.195 6.47028 19.321 6.38312C19.447 6.29596 19.5968 6.24951 19.75 6.25C19.9047 6.25271 20.0547 6.30316 20.1796 6.39447C20.3044 6.48577 20.398 6.61344 20.4475 6.76L23.29 15.25H26.5V16.75H22.75C22.5928 16.7504 22.4394 16.7014 22.3115 16.6099C22.1837 16.5184 22.0878 16.389 22.0375 16.24L19.75 9.25L13.705 25.2625C13.6514 25.4061 13.555 25.5297 13.429 25.6169C13.303 25.704 13.1532 25.7505 13 25.75Z" fill="#E40422"/>
</svg>
