<svg width="32" height="32" viewBox="0 0 32 32" fill="none" xmlns="http://www.w3.org/2000/svg">
<rect x="0.75" y="0.75" width="30.5" height="30.5" rx="15.25" stroke="#5D508B" stroke-width="1.5"/>
<path d="M21.2501 11.8106L23.5001 9.56058L22.4395 8.5L19.9697 10.9698C19.8291 11.1104 19.75 11.3012 19.75 11.5V14.5H14.4443L15.302 26.5H21.948L22.8057 14.5H21.2501V11.8106ZM20.552 25H16.698L16.0557 16H21.1944L20.552 25Z" fill="#5D508B"/>
<path d="M16 9.28848V7C16 6.58585 15.6642 6.25 15.25 6.25H10.75C10.3359 6.25 10 6.58585 10 7V9.28848C9.04218 10.1443 8.5 11.3403 8.5 12.625V25.75C8.5 26.1642 8.83585 26.5 9.25 26.5H13V25H10V12.625C10 10.858 11.5 10.015 11.5 10.015V7.75H14.5V10.015C14.5 10.015 16 10.858 16 12.625V13H17.5V12.625C17.5 11.3403 16.9578 10.1443 16 9.28848Z" fill="#5D508B"/>
</svg>
