<svg width="32" height="32" viewBox="0 0 32 32" fill="none" xmlns="http://www.w3.org/2000/svg">
<rect x="0.75" y="0.75" width="30.5" height="30.5" rx="15.25" stroke="#00AA84" stroke-width="1.5"/>
<path d="M8.41 21L7.752 11.228H9.334L9.642 16.856L9.768 19.18H9.894L10.874 13.482H12.582L13.562 19.18H13.688L13.814 16.856L14.122 11.228H15.648L14.99 21H12.624L11.756 15.47H11.644L10.776 21H8.41ZM20.3465 21.168C19.0679 21.168 18.1205 20.7293 17.5045 19.852C16.8979 18.9747 16.5945 17.7287 16.5945 16.114C16.5945 14.5087 16.8979 13.2673 17.5045 12.39C18.1205 11.5033 19.0679 11.06 20.3465 11.06C20.8319 11.06 21.2565 11.1253 21.6205 11.256C21.9939 11.3867 22.3159 11.5687 22.5865 11.802C22.8572 12.026 23.0812 12.3013 23.2585 12.628C23.4359 12.9453 23.5759 13.2953 23.6785 13.678L21.9985 14.154C21.9332 13.93 21.8585 13.72 21.7745 13.524C21.6905 13.328 21.5832 13.16 21.4525 13.02C21.3312 12.8707 21.1772 12.7587 20.9905 12.684C20.8039 12.6 20.5799 12.558 20.3185 12.558C19.6839 12.558 19.2265 12.8007 18.9465 13.286C18.6759 13.7713 18.5405 14.434 18.5405 15.274V16.954C18.5405 17.794 18.6759 18.4567 18.9465 18.942C19.2265 19.4273 19.6839 19.67 20.3185 19.67C20.5799 19.67 20.8039 19.6327 20.9905 19.558C21.1772 19.474 21.3312 19.362 21.4525 19.222C21.5832 19.0727 21.6905 18.9 21.7745 18.704C21.8585 18.508 21.9332 18.298 21.9985 18.074L23.6785 18.55C23.5759 18.9327 23.4359 19.2873 23.2585 19.614C23.0812 19.9313 22.8572 20.2067 22.5865 20.44C22.3159 20.664 21.9939 20.8413 21.6205 20.972C21.2565 21.1027 20.8319 21.168 20.3465 21.168Z" fill="#00AA84"/>
</svg>
