<svg width="32" height="32" viewBox="0 0 32 32" fill="none" xmlns="http://www.w3.org/2000/svg">
<rect x="0.75" y="0.75" width="30.5" height="30.5" rx="15.25" stroke="#E0CA00" stroke-width="1.5"/>
<path d="M16 22V20.5C16.5799 20.4498 17.1235 20.1966 17.5351 19.7851C17.9466 19.3735 18.1998 18.8299 18.25 18.25H19.75C19.7015 19.2289 19.2909 20.1548 18.5979 20.8479C17.9048 21.5409 16.9789 21.9515 16 22Z" fill="#E0CA00"/>
<path d="M16 25.0001C14.2105 24.9978 12.4949 24.2859 11.2295 23.0205C9.96415 21.7552 9.25226 20.0396 9.25 18.2501C9.29035 16.9343 9.67686 15.6523 10.3706 14.5335L15.3646 6.5776C15.4367 6.4763 15.532 6.39371 15.6426 6.33672C15.7531 6.27973 15.8756 6.25 16 6.25C16.1244 6.25 16.2469 6.27973 16.3574 6.33672C16.468 6.39371 16.5633 6.4763 16.6354 6.5776L21.6071 14.4949C22.3126 15.6239 22.7069 16.9195 22.75 18.2501C22.7477 20.0396 22.0359 21.7552 20.7705 23.0205C19.5051 24.2859 17.7895 24.9978 16 25.0001ZM16 8.3863L11.6637 15.2922C11.1049 16.1809 10.7898 17.201 10.75 18.2501C10.75 19.6425 11.3031 20.9778 12.2877 21.9624C13.2723 22.947 14.6076 23.5001 16 23.5001C17.3924 23.5001 18.7277 22.947 19.7123 21.9624C20.6969 20.9778 21.25 19.6425 21.25 18.2501C21.2073 17.1863 20.8844 16.1526 20.314 15.2536L16 8.3863Z" fill="#E0CA00"/>
</svg>
