<svg xmlns="http://www.w3.org/2000/svg" width="142" height="24" viewBox="0 0 142 24" fill="none">
  <g clip-path="url(#clip0_3524_8359)">
    <path d="M46.478 0.619141H34.7046C34.465 0.619141 34.3281 0.791061 34.3281 0.997365V23.0031C34.3281 23.2438 34.4993 23.3813 34.7046 23.3813H46.478C46.7176 23.3813 46.8545 23.2094 46.8545 23.0031V20.0117C46.8545 19.771 46.6834 19.6335 46.478 19.6335H38.4694C38.3325 19.6335 38.264 19.5303 38.264 19.4272V13.9601C38.264 13.8226 38.3667 13.7538 38.4694 13.7538H46.478C46.7176 13.7538 46.8545 13.5819 46.8545 13.3756V10.4186C46.8545 10.1779 46.6834 10.0403 46.478 10.0403H38.4694C38.3325 10.0403 38.264 9.97158 38.264 9.83404V4.60768C38.264 4.47014 38.3667 4.40138 38.4694 4.40138H46.478C46.7176 4.40138 46.8545 4.22946 46.8545 4.02315V1.03175C46.8545 0.791061 46.6834 0.653525 46.478 0.653525V0.619141Z" fill="#121019"/>
    <path d="M8.93275 10.7622C8.79585 10.4871 8.79585 10.3496 8.93275 10.0745L14.6826 1.06589C14.8537 0.756433 14.6826 0.618896 14.4088 0.618896H10.6098C10.4044 0.618896 10.2675 0.687665 10.1649 0.893969L4.17547 10.4871C4.07279 10.659 3.93589 10.6246 3.93589 10.4183V0.997121C3.93589 0.756433 3.76476 0.618896 3.55941 0.618896H0.376477C0.136901 0.618896 0 0.790817 0 0.997121V23.0029C0 23.2435 0.171126 23.3811 0.376477 23.3811H3.55941C3.79899 23.3811 3.93589 23.2092 3.93589 23.0029V17.2951C3.93589 17.02 4.00434 16.8825 4.10701 16.7106L5.88672 13.9599C5.95517 13.8223 6.12629 13.8223 6.19474 13.9599L10.4387 22.9685C10.5413 23.2092 10.7467 23.3123 10.9863 23.3123H14.5457C14.8537 23.3123 14.9564 23.1404 14.8537 22.8653L8.93275 10.6934V10.7622Z" fill="#121019"/>
    <path d="M69.6479 19.6335H59.8595C59.5857 19.6335 59.5515 19.4959 59.6542 19.2552L69.2372 1.54751C69.5452 1.06613 69.2372 0.619141 68.8265 0.619141H53.4594C53.2199 0.619141 53.1172 0.79106 53.1172 0.96298V3.98877C53.1172 4.22946 53.2541 4.36699 53.4594 4.36699H62.7344C62.974 4.36699 63.0425 4.47014 62.9398 4.71083L53.2883 22.4873C53.0487 22.9343 53.2883 23.3813 53.7332 23.3813H69.6479C69.8533 23.3813 69.9902 23.2094 69.9902 23.0375V20.0117C69.9902 19.771 69.819 19.6335 69.6479 19.6335Z" fill="#121019"/>
    <path d="M25.2929 0.619141H22.0757C21.8678 0.619141 21.6992 0.788478 21.6992 0.997365V23.0375C21.6992 23.2464 21.8678 23.4157 22.0757 23.4157H25.2929C25.5008 23.4157 25.6693 23.2464 25.6693 23.0375V0.997365C25.6693 0.788478 25.5008 0.619141 25.2929 0.619141Z" fill="#121019"/>
    <path d="M88.8813 11.8969C88.6417 11.7593 88.6075 11.5874 88.8813 11.4843C90.3872 10.5559 91.3455 8.90547 91.3455 6.80805C91.3455 3.33527 88.9498 0.65332 84.5347 0.65332H77.1079C76.8683 0.65332 76.7656 0.82524 76.7656 1.03154V23.0373C76.7656 23.278 76.9025 23.4155 77.1079 23.4155H84.8085C89.3605 23.4155 91.7562 20.6648 91.7562 16.9857C91.7562 13.3066 90.6268 12.8252 88.9155 11.8625L88.8813 11.8969ZM80.6673 4.60748C80.6673 4.46994 80.7357 4.40117 80.8726 4.40117H83.9871C86.0406 4.40117 87.1701 5.53584 87.1701 7.22066C87.1701 8.90547 86.0406 10.0401 83.9871 10.0401H80.8726C80.7357 10.0401 80.6673 9.97137 80.6673 9.83384V4.57309V4.60748ZM84.2951 19.6333H80.8726C80.7357 19.6333 80.6673 19.5301 80.6673 19.427V13.9599C80.6673 13.8224 80.7357 13.7536 80.8726 13.7536H84.2951C86.4171 13.7536 87.5808 14.957 87.5808 16.6762C87.5808 18.3954 86.4171 19.5989 84.2951 19.5989V19.6333Z" fill="#121019"/>
    <path d="M133.546 12.1378C133.444 11.8971 133.444 11.7252 133.546 11.5532L138.646 1.06613C138.817 0.756678 138.646 0.619141 138.372 0.619141H134.778C134.573 0.619141 134.436 0.687909 134.333 0.928597L130.842 8.14923C130.74 8.38992 130.569 8.38992 130.5 8.14923L127.009 0.928597C126.907 0.687909 126.735 0.619141 126.564 0.619141H122.971C122.663 0.619141 122.56 0.791061 122.697 1.06613L127.796 11.5532C127.899 11.7252 127.899 11.8971 127.796 12.1378L122.526 22.9687C122.389 23.2438 122.526 23.3813 122.834 23.3813H126.427C126.633 23.3813 126.735 23.3126 126.838 23.1063L130.534 15.473C130.637 15.2323 130.808 15.2323 130.877 15.473L134.573 23.1063C134.676 23.3126 134.813 23.3813 134.984 23.3813H138.577C138.885 23.3813 138.988 23.2094 138.885 22.9687L133.615 12.1378H133.546Z" fill="#121019"/>
    <path d="M115.098 0.619141H111.915H102.88H99.6626C99.5257 0.619141 99.4231 0.687909 99.3546 0.756677C99.2862 0.825445 99.252 0.894213 99.252 0.997365V23.0031C99.252 23.2438 99.4231 23.3813 99.6284 23.3813H102.811H111.847H115.064C115.304 23.3813 115.44 23.2094 115.44 23.0031V0.997365C115.44 0.928597 115.44 0.859829 115.406 0.825445C115.338 0.687909 115.235 0.619141 115.064 0.619141H115.098ZM111.333 19.6335H103.462C103.325 19.6335 103.256 19.5303 103.256 19.4272V4.47014C103.291 4.40138 103.359 4.36699 103.427 4.36699H111.299C111.436 4.36699 111.505 4.47014 111.505 4.5733V19.5303C111.47 19.5991 111.402 19.6335 111.333 19.6335Z" fill="#121019"/>
  </g>
  <defs>
    <clipPath id="clip0_3524_8359">
      <rect width="142" height="24" fill="white"/>
    </clipPath>
  </defs>
</svg>