<svg width="240" height="40" viewBox="0 0 240 40" fill="none" xmlns="http://www.w3.org/2000/svg">
<g id="B_RBm_Skzl_Logo_DE_H_PW_RGB 1" clip-path="url(#clip0_3524_9330)">
<path id="Vector" d="M239.799 0.120117H0.200195V39.7201H239.799V0.120117Z" fill="white"/>
<path id="Vector_2" d="M-0.00012207 0V39.9993H240V0H-0.00012207ZM119.999 39.2006H0.799977V0.800099H119.999V39.2006ZM199.999 39.2006H120.799V0.800099H199.999V39.2006ZM239.2 39.2006H200.801V0.800099H239.201L239.2 39.2006Z" fill="#121019"/>
<path id="Vector_3" d="M188.516 13.5468V22.3577C188.516 22.472 188.439 22.5101 188.383 22.3958L183.355 13.4706C183.324 13.4239 183.282 13.3856 183.233 13.359C183.184 13.3324 183.129 13.3184 183.073 13.3182H180.921C180.891 13.3172 180.861 13.3224 180.832 13.3336C180.804 13.3447 180.779 13.3615 180.757 13.3829C180.736 13.4044 180.719 13.43 180.708 13.4581C180.697 13.4863 180.691 13.5165 180.692 13.5468V26.4104C180.691 26.4407 180.697 26.4709 180.708 26.4991C180.719 26.5272 180.736 26.5528 180.757 26.5743C180.779 26.5957 180.804 26.6125 180.832 26.6236C180.861 26.6348 180.891 26.64 180.921 26.639H182.788C182.818 26.64 182.848 26.6348 182.877 26.6236C182.905 26.6125 182.93 26.5957 182.952 26.5743C182.973 26.5528 182.99 26.5272 183.001 26.4991C183.012 26.4709 183.017 26.4407 183.017 26.4104V17.6192C183.017 17.5049 183.093 17.4668 183.149 17.5811L188.177 26.4866C188.208 26.5333 188.25 26.5716 188.299 26.5982C188.348 26.6248 188.403 26.6388 188.459 26.639H190.611C190.641 26.6402 190.672 26.6351 190.7 26.6241C190.728 26.613 190.754 26.5962 190.775 26.5747C190.797 26.5533 190.814 26.5276 190.825 26.4993C190.836 26.471 190.841 26.4408 190.84 26.4104V13.5468C190.841 13.5164 190.836 13.4862 190.825 13.4579C190.814 13.4296 190.797 13.4039 190.775 13.3825C190.754 13.361 190.728 13.3442 190.7 13.3331C190.672 13.3221 190.641 13.317 190.611 13.3182H188.744C188.714 13.3172 188.684 13.3224 188.656 13.3336C188.627 13.3447 188.602 13.3615 188.58 13.3829C188.559 13.4044 188.542 13.43 188.531 13.4581C188.52 13.4863 188.515 13.5165 188.516 13.5468ZM175.059 26.639H176.953C176.983 26.64 177.013 26.6348 177.042 26.6236C177.07 26.6125 177.095 26.5957 177.117 26.5743C177.138 26.5528 177.155 26.5272 177.166 26.4991C177.177 26.4709 177.183 26.4407 177.182 26.4104V13.5468C177.183 13.5165 177.177 13.4863 177.166 13.4581C177.155 13.43 177.138 13.4044 177.117 13.3829C177.095 13.3615 177.07 13.3447 177.042 13.3336C177.013 13.3224 176.983 13.3172 176.953 13.3182H175.066C175.036 13.3168 175.005 13.3217 174.977 13.3327C174.949 13.3437 174.923 13.3604 174.901 13.3819C174.879 13.4034 174.863 13.4292 174.851 13.4575C174.84 13.4859 174.835 13.5163 174.836 13.5468V26.4104C174.835 26.4407 174.84 26.4708 174.851 26.499C174.862 26.5271 174.879 26.5527 174.9 26.5742C174.921 26.5956 174.947 26.6125 174.975 26.6236C175.003 26.6348 175.033 26.64 175.064 26.639M167.545 24.3178V13.5468C167.546 13.5164 167.541 13.4862 167.53 13.4579C167.519 13.4296 167.502 13.4039 167.481 13.3825C167.459 13.361 167.434 13.3442 167.405 13.3331C167.377 13.3221 167.347 13.317 167.317 13.3182H165.431C165.401 13.3166 165.37 13.3214 165.341 13.3323C165.313 13.3431 165.287 13.3598 165.265 13.3813C165.243 13.4028 165.226 13.4286 165.214 13.4571C165.203 13.4856 165.197 13.5161 165.198 13.5468V26.4104C165.197 26.4407 165.203 26.4709 165.214 26.4991C165.225 26.5272 165.242 26.5528 165.263 26.5743C165.285 26.5957 165.31 26.6125 165.338 26.6236C165.367 26.6348 165.397 26.64 165.427 26.639H171.918C171.948 26.6402 171.979 26.6351 172.007 26.6241C172.035 26.613 172.061 26.5962 172.082 26.5747C172.104 26.5533 172.121 26.5276 172.132 26.4993C172.143 26.471 172.148 26.4408 172.147 26.4104V24.6607C172.148 24.6303 172.143 24.6001 172.132 24.5718C172.121 24.5435 172.104 24.5178 172.082 24.4964C172.061 24.4749 172.035 24.4581 172.007 24.447C171.979 24.436 171.948 24.4309 171.918 24.4321H167.652C167.637 24.4329 167.622 24.4305 167.608 24.4251C167.594 24.4198 167.581 24.4115 167.57 24.4009C167.56 24.3902 167.551 24.3775 167.546 24.3634C167.54 24.3493 167.537 24.3343 167.538 24.3192M155.222 15.5223H156.955C158.497 15.5223 159.736 16.3408 159.736 18.0341C159.736 19.7274 158.497 20.5459 156.936 20.5459H155.222C155.207 20.5465 155.192 20.5439 155.177 20.5384C155.163 20.5328 155.15 20.5244 155.14 20.5137C155.129 20.503 155.121 20.4901 155.115 20.476C155.11 20.4619 155.107 20.4467 155.108 20.4316V15.6338C155.105 15.6183 155.107 15.6026 155.112 15.5878C155.117 15.573 155.125 15.5596 155.136 15.5487C155.148 15.5377 155.161 15.5295 155.176 15.5247C155.191 15.5198 155.206 15.5186 155.222 15.5209M159.64 26.6334H162.039C162.229 26.6334 162.286 26.4993 162.172 26.3512L159.314 22.4918C159.303 22.4789 159.295 22.4637 159.291 22.4472C159.287 22.4307 159.286 22.4134 159.29 22.3968C159.294 22.3802 159.301 22.3647 159.312 22.3515C159.323 22.3383 159.337 22.3279 159.352 22.321C161.046 21.6352 162.174 20.1324 162.174 18.0397C162.174 15.0764 159.927 13.3196 157.07 13.3196H152.995C152.965 13.3184 152.935 13.3235 152.907 13.3344C152.878 13.3454 152.853 13.3621 152.831 13.3834C152.81 13.4047 152.793 13.4302 152.782 13.4583C152.771 13.4864 152.766 13.5165 152.767 13.5468V26.4104C152.765 26.4408 152.77 26.471 152.782 26.4993C152.793 26.5276 152.809 26.5533 152.831 26.5747C152.852 26.5962 152.878 26.613 152.906 26.6241C152.935 26.6351 152.965 26.6402 152.995 26.639H154.88C154.911 26.64 154.941 26.6348 154.969 26.6236C154.997 26.6125 155.023 26.5957 155.044 26.5743C155.066 26.5528 155.082 26.5272 155.094 26.4991C155.105 26.4709 155.11 26.4407 155.109 26.4104V22.8728C155.108 22.8576 155.111 22.8425 155.117 22.8283C155.122 22.8142 155.13 22.8014 155.141 22.7906C155.152 22.7799 155.165 22.7715 155.179 22.766C155.193 22.7604 155.208 22.7579 155.223 22.7585H156.671C156.73 22.7641 156.784 22.7913 156.824 22.8347L159.375 26.488C159.402 26.5347 159.441 26.5733 159.488 26.6001C159.534 26.6269 159.588 26.6408 159.641 26.6404M149.304 15.2994V13.5468C149.305 13.5164 149.3 13.4862 149.289 13.4579C149.278 13.4296 149.261 13.4039 149.239 13.3825C149.218 13.361 149.192 13.3442 149.164 13.3331C149.136 13.3221 149.105 13.317 149.075 13.3182H142.144C142.113 13.317 142.083 13.3221 142.055 13.3331C142.027 13.3442 142.001 13.361 141.979 13.3825C141.958 13.4039 141.941 13.4296 141.93 13.4579C141.919 13.4862 141.914 13.5164 141.915 13.5468V26.4104C141.914 26.4408 141.919 26.471 141.93 26.4993C141.941 26.5276 141.958 26.5533 141.979 26.5747C142.001 26.5962 142.027 26.613 142.055 26.6241C142.083 26.6351 142.113 26.6402 142.144 26.639H149.075C149.105 26.6402 149.136 26.6351 149.164 26.6241C149.192 26.613 149.218 26.5962 149.239 26.5747C149.261 26.5533 149.278 26.5276 149.289 26.4993C149.3 26.471 149.305 26.4408 149.304 26.4104V24.6607C149.305 24.6303 149.3 24.6001 149.289 24.5718C149.278 24.5435 149.261 24.5178 149.239 24.4964C149.218 24.4749 149.192 24.4581 149.164 24.447C149.136 24.436 149.105 24.4309 149.075 24.4321H144.356C144.341 24.4329 144.326 24.4305 144.312 24.4251C144.298 24.4198 144.285 24.4115 144.274 24.4009C144.264 24.3902 144.255 24.3775 144.25 24.3634C144.244 24.3493 144.241 24.3343 144.242 24.3192V21.1216C144.241 21.1064 144.244 21.0913 144.25 21.0772C144.255 21.063 144.263 21.0502 144.274 21.0395C144.285 21.0287 144.298 21.0203 144.312 21.0148C144.326 21.0093 144.341 21.0067 144.356 21.0073H149.079C149.11 21.0087 149.14 21.0038 149.168 20.9928C149.197 20.9818 149.223 20.965 149.244 20.9435C149.266 20.922 149.282 20.8962 149.293 20.8678C149.304 20.8394 149.309 20.8091 149.308 20.7787V19.0501C149.309 19.0198 149.304 18.9895 149.293 18.9612C149.282 18.9329 149.265 18.9073 149.244 18.8858C149.222 18.8643 149.196 18.8475 149.168 18.8365C149.14 18.8254 149.11 18.8203 149.079 18.8215H144.356C144.341 18.8238 144.325 18.8225 144.31 18.8177C144.295 18.8129 144.282 18.8047 144.271 18.7937C144.26 18.7828 144.251 18.7694 144.246 18.7546C144.241 18.7398 144.24 18.7241 144.242 18.7086V15.6409C144.242 15.6258 144.244 15.6108 144.25 15.5969C144.256 15.5829 144.264 15.5702 144.275 15.5596C144.285 15.5491 144.298 15.5408 144.312 15.5353C144.326 15.5299 144.341 15.5274 144.356 15.528H149.079C149.11 15.5292 149.14 15.5241 149.168 15.513C149.196 15.5019 149.222 15.4851 149.244 15.4637C149.265 15.4422 149.282 15.4165 149.293 15.3882C149.304 15.36 149.309 15.3297 149.308 15.2994M134.456 24.4321H132.437C132.422 24.4327 132.407 24.4301 132.393 24.4247C132.379 24.4192 132.366 24.4109 132.356 24.4003C132.345 24.3897 132.337 24.377 132.331 24.3631C132.326 24.3491 132.323 24.3342 132.324 24.3192V21.1216C132.321 21.1062 132.323 21.0904 132.328 21.0756C132.332 21.0607 132.341 21.0472 132.352 21.0361C132.363 21.025 132.376 21.0166 132.391 21.0116C132.406 21.0066 132.421 21.0051 132.437 21.0073H134.456C135.694 21.0073 136.379 21.7129 136.379 22.7204C136.379 23.7279 135.694 24.4321 134.456 24.4321ZM134.266 15.5223C135.465 15.5223 136.132 16.1686 136.132 17.1578C136.132 18.147 135.465 18.813 134.266 18.813H132.431C132.416 18.8151 132.4 18.8137 132.386 18.8087C132.371 18.8038 132.358 18.7955 132.347 18.7846C132.336 18.7737 132.327 18.7604 132.322 18.7457C132.318 18.7311 132.316 18.7155 132.318 18.7001V15.6409C132.316 15.6255 132.318 15.6099 132.322 15.5953C132.327 15.5806 132.336 15.5673 132.347 15.5564C132.358 15.5454 132.371 15.5372 132.386 15.5323C132.4 15.5273 132.416 15.5259 132.431 15.528L134.266 15.5223ZM137.047 19.7133C137.524 19.4218 137.916 19.0099 138.183 18.519C138.451 18.0281 138.584 17.4754 138.571 16.9165C138.571 14.8803 137.16 13.3196 134.572 13.3196H130.228C130.198 13.3184 130.168 13.3235 130.14 13.3344C130.112 13.3454 130.086 13.3621 130.065 13.3834C130.043 13.4047 130.026 13.4302 130.015 13.4583C130.004 13.4864 129.999 13.5165 130 13.5468V26.4104C129.999 26.4408 130.004 26.471 130.015 26.4993C130.026 26.5276 130.043 26.5533 130.064 26.5747C130.086 26.5962 130.111 26.613 130.139 26.6241C130.168 26.6351 130.198 26.6402 130.228 26.639H134.744C137.409 26.639 138.819 25.0205 138.819 22.8897C138.819 21.5012 138.152 20.4541 137.048 19.8643C136.972 19.8079 136.972 19.75 137.048 19.7119" fill="#CA021D"/>
<path id="Vector_4" d="M225.876 31.3492C225.876 31.3492 225.17 26.7109 224.847 24.7551L224.988 24.7255C225.055 24.7114 225.118 24.6816 225.171 24.6386C225.224 24.5956 225.266 24.5406 225.293 24.4782C225.321 24.4157 225.333 24.3476 225.329 24.2795C225.325 24.2113 225.305 24.1451 225.271 24.0862C224.479 22.7231 224.197 21.0255 224.197 19.3379C224.196 18.3296 224.363 17.3282 224.691 16.3745C224.709 16.3209 224.729 16.2687 224.748 16.2151L224.787 16.1008C225.155 15.2758 225.393 14.3984 225.492 13.5001C225.597 12.2814 225.399 11.0557 224.914 9.93281L224.85 9.81992C224.992 9.67158 225.081 9.48037 225.103 9.27615C225.125 9.07193 225.079 8.86619 224.971 8.69104C224.712 8.24513 224.181 8.06733 223.786 8.29593C223.744 8.31992 223.645 8.38906 223.603 8.42152C223.529 8.36789 223.487 8.34108 223.487 8.34108C223.487 8.34108 223.375 8.2677 223.279 8.21832L223.243 8.19856C222.826 8.01453 222.376 7.92075 221.921 7.92339C221.693 7.92347 221.466 7.94663 221.243 7.99254C220.779 8.08939 220.341 8.28582 219.959 8.56827C219.827 8.60874 219.691 8.63477 219.553 8.64588L219.016 8.67128C218.764 8.68116 218.476 8.67128 218.476 8.67128C218.446 8.67128 218.416 8.6772 218.389 8.68871C218.361 8.70022 218.336 8.71708 218.315 8.73832C218.294 8.75957 218.277 8.78478 218.266 8.81251C218.254 8.84023 218.249 8.86993 218.249 8.89988C218.249 8.91117 218.331 9.64777 218.331 9.65059C218.336 9.74097 218.362 9.82901 218.405 9.90832C218.449 9.98764 218.51 10.0563 218.583 10.1092L218.602 10.1219C218.639 10.1411 218.668 10.1718 218.686 10.2094C218.737 10.3543 218.827 10.4823 218.946 10.5791C218.955 10.585 218.964 10.5889 218.975 10.5906C218.985 10.5922 218.996 10.5917 219.006 10.5888C219.016 10.586 219.025 10.581 219.033 10.5742C219.041 10.5674 219.047 10.559 219.052 10.5495C219.153 10.1473 219.393 10.5805 219.849 10.3336C219.966 10.2701 220.03 10.5551 219.98 10.6793L219.938 10.7865C219.891 10.9041 219.815 11.0074 219.716 11.0862C219.617 11.1649 219.499 11.2163 219.373 11.2353C219.17 11.2649 219.055 11.2847 219.057 11.3129C219.081 11.5401 219.057 11.7362 219.286 11.8773C219.318 11.8954 219.352 11.91 219.388 11.9211C219.742 12.0142 220.775 12.4107 219.461 13.9615C219.382 14.0515 219.308 14.1457 219.239 14.2438C219.212 14.2838 219.188 14.3258 219.167 14.3693L219.139 14.4244L215.188 12.9469C215.051 12.8832 214.932 12.7862 214.842 12.6647L214.454 11.9959C214.363 11.8455 214.235 11.7211 214.082 11.6344C213.929 11.5477 213.757 11.5016 213.581 11.5006C213.398 11.4862 213.215 11.4862 213.032 11.5006C212.913 11.5006 212.846 11.5344 212.822 11.6036C212.788 11.7735 212.818 11.9497 212.906 12.0989L213.246 12.7212C213.276 12.7649 213.704 13.7216 213.704 13.7216C213.746 13.8393 213.819 13.9435 213.915 14.0236L217.981 17.0744L213.706 19.2066C213.646 19.2396 213.579 19.2603 213.51 19.2673C213.441 19.2743 213.372 19.2676 213.306 19.2475L212.922 19.1318C212.216 18.82 211.696 19.0373 211.388 19.2955L211.267 19.4098C211.241 19.4329 211.222 19.462 211.211 19.4944C211.2 19.5269 211.197 19.5617 211.203 19.5955C211.209 19.6293 211.223 19.6611 211.245 19.6878C211.266 19.7146 211.294 19.7355 211.326 19.7485C211.326 19.7485 212 20.145 212.149 20.2466L213.2 20.8689C213.363 20.9635 213.555 20.9947 213.739 20.9564L217.889 20.1196C217.955 21.1042 218.123 22.0793 218.39 23.0293C217.291 24.1056 216.552 25.4949 216.273 27.0072C216.072 28.1277 216.132 29.1422 216.443 30.336C215.864 30.3685 215.304 30.4532 214.84 30.7763C214.398 31.0839 214.308 31.6314 214.305 31.9052L217.55 31.9122H217.824C217.923 31.9077 218.018 31.8719 218.095 31.8101C218.173 31.7482 218.228 31.6634 218.254 31.5679C218.282 31.4576 218.302 31.3453 218.314 31.2321C218.416 30.3652 218.674 29.5238 219.076 28.7485C219.424 28.0984 219.858 27.498 220.366 26.9635C221.354 28.3262 222.601 29.4817 224.034 30.3643C223.565 30.396 223.106 30.5192 222.684 30.7269C222.478 30.8508 222.308 31.0259 222.19 31.2351C222.073 31.4444 222.011 31.6806 222.012 31.9207H225.354C225.462 31.9209 225.568 31.8872 225.656 31.8242C225.745 31.7611 225.811 31.672 225.846 31.5693C225.846 31.5482 225.859 31.5256 225.865 31.5044C225.87 31.4833 225.865 31.472 225.865 31.4565C225.872 31.4212 225.876 31.3853 225.876 31.3492Z" fill="#121019"/>
<path id="Vector_5" d="M13.0882 8.39342C13.4484 8.59282 13.7426 8.89294 13.9348 9.25702C14.1433 9.65845 14.2476 10.1058 14.2382 10.5581C14.248 11.0108 14.1436 11.4587 13.9348 11.8605C13.7426 12.2246 13.4484 12.5247 13.0882 12.7241C12.7098 12.9307 12.2844 13.0357 11.8534 13.0289H10.3718C10.3622 13.0303 10.3524 13.0295 10.3432 13.0265C10.334 13.0234 10.3256 13.0183 10.3187 13.0114C10.3119 13.0045 10.3067 12.9962 10.3037 12.987C10.3006 12.9778 10.2998 12.968 10.3012 12.9584V8.16059C10.2998 8.15099 10.3006 8.1412 10.3037 8.13198C10.3067 8.12277 10.3119 8.1144 10.3187 8.10754C10.3256 8.10068 10.334 8.09552 10.3432 8.09248C10.3524 8.08944 10.3622 8.0886 10.3718 8.09003H11.8534C12.2843 8.08283 12.7097 8.18735 13.0882 8.39342ZM10.8657 12.528H11.8252C12.1613 12.534 12.4936 12.4559 12.7918 12.3008C13.0755 12.1508 13.3057 11.9167 13.4508 11.6305C13.6173 11.2981 13.6988 10.9297 13.6879 10.5581C13.6983 10.1865 13.6169 9.81814 13.4508 9.48562C13.3041 9.20058 13.0743 8.96684 12.7918 8.81534C12.4931 8.66177 12.161 8.58468 11.8252 8.59098H10.8657C10.8417 8.59098 10.8304 8.60226 10.8304 8.62484V12.4913C10.8233 12.5153 10.8346 12.528 10.8657 12.528Z" fill="#121019"/>
<path id="Vector_6" d="M15.7084 12.8941C15.4582 12.7543 15.2538 12.545 15.1199 12.2915C14.9821 12.0125 14.9103 11.7054 14.9103 11.3941C14.9103 11.0828 14.9821 10.7757 15.1199 10.4966C15.2473 10.2472 15.4431 10.0391 15.6844 9.89689C15.9323 9.75428 16.214 9.68115 16.5 9.68522C16.7832 9.68191 17.062 9.75504 17.3071 9.89689C17.5453 10.0349 17.7407 10.2361 17.8716 10.4783C18.0099 10.7352 18.0804 11.0232 18.0762 11.3151C18.0767 11.3692 18.0744 11.4234 18.0691 11.4773C18.0661 11.4936 18.0573 11.5083 18.0444 11.5187C18.0314 11.529 18.0152 11.5344 17.9986 11.5338H15.5221C15.4656 11.5338 15.4445 11.5634 15.4586 11.6255C15.48 11.9062 15.6029 12.1696 15.8043 12.3663C16.0135 12.5561 16.2882 12.6572 16.5705 12.6485C16.7446 12.6486 16.9168 12.6122 17.076 12.5418C17.2352 12.4713 17.3778 12.3683 17.4948 12.2393C17.547 12.1871 17.5865 12.1772 17.6148 12.2097L17.8476 12.4651C17.88 12.4933 17.88 12.523 17.8476 12.5568C17.6828 12.7317 17.4846 12.8718 17.2648 12.9689C17.0458 13.0639 16.8093 13.112 16.5705 13.11C16.2693 13.1138 15.9722 13.0394 15.7084 12.8941ZM17.5329 11.0399C17.4958 10.7903 17.3725 10.5617 17.1844 10.3936C16.9915 10.2345 16.7493 10.1475 16.4993 10.1475C16.2493 10.1475 16.0071 10.2345 15.8142 10.3936C15.6243 10.5603 15.5006 10.7896 15.4656 11.0399V11.0738C15.4656 11.102 15.4882 11.1175 15.5362 11.1175H17.4694C17.5259 11.1222 17.547 11.0963 17.5329 11.0399Z" fill="#121019"/>
<path id="Vector_7" d="M20.4185 9.69205C20.4608 9.69205 20.482 9.71463 20.482 9.76261V10.1366C20.482 10.1775 20.465 10.1986 20.4326 10.1986C20.3985 10.1989 20.3644 10.1955 20.331 10.1888C20.2994 10.182 20.2673 10.1782 20.235 10.1775C20.08 10.1742 19.9268 10.2116 19.7906 10.2858C19.6545 10.3601 19.5401 10.4687 19.4589 10.6008C19.4236 10.6521 19.4062 10.7136 19.4095 10.7758V12.9588C19.411 12.9684 19.4101 12.9782 19.4071 12.9874C19.404 12.9966 19.3989 13.005 19.392 13.0118C19.3852 13.0187 19.3768 13.0238 19.3676 13.0269C19.3584 13.0299 19.3486 13.0308 19.339 13.0293H18.965C18.9554 13.0308 18.9456 13.0299 18.9364 13.0269C18.9272 13.0238 18.9188 13.0187 18.912 13.0118C18.9051 13.005 18.9 12.9966 18.8969 12.9874C18.8939 12.9782 18.893 12.9684 18.8945 12.9588V9.82611C18.893 9.81651 18.8939 9.80671 18.8969 9.7975C18.9 9.78829 18.9051 9.77992 18.912 9.77306C18.9188 9.7662 18.9272 9.76104 18.9364 9.758C18.9456 9.75496 18.9554 9.75412 18.965 9.75555H19.3037C19.3133 9.75412 19.3231 9.75496 19.3323 9.758C19.3415 9.76104 19.3499 9.7662 19.3567 9.77306C19.3636 9.77992 19.3688 9.78829 19.3718 9.7975C19.3748 9.80671 19.3757 9.81651 19.3743 9.82611V10.0787C19.3743 10.0984 19.3743 10.1097 19.3884 10.1154C19.4025 10.121 19.4095 10.1154 19.4236 10.1013C19.5288 9.96653 19.6639 9.85813 19.8182 9.78465C19.9725 9.71117 20.1418 9.67464 20.3126 9.67794C20.3483 9.67895 20.3838 9.68368 20.4185 9.69205Z" fill="#121019"/>
<path id="Vector_8" d="M23.3749 13.0289H23.0009C22.9913 13.0303 22.9815 13.0295 22.9723 13.0265C22.9631 13.0234 22.9547 13.0183 22.9479 13.0114C22.941 13.0045 22.9359 12.9962 22.9328 12.987C22.9298 12.9778 22.9289 12.968 22.9304 12.9584V8.16059C22.9289 8.15099 22.9298 8.1412 22.9328 8.13198C22.9359 8.12277 22.941 8.1144 22.9479 8.10754C22.9547 8.10068 22.9631 8.09552 22.9723 8.09248C22.9815 8.08944 22.9913 8.0886 23.0009 8.09003H24.3768C24.6917 8.08447 25.0035 8.15311 25.2869 8.29041C25.5484 8.41865 25.7674 8.61951 25.9177 8.86896C26.0764 9.13934 26.1561 9.4488 26.1477 9.7622C26.161 10.1288 26.0451 10.4884 25.8203 10.7782C25.5904 11.0534 25.2808 11.2506 24.9341 11.3426C24.8819 11.3582 24.8735 11.3836 24.9059 11.4202L26.1336 12.9442C26.1435 12.9566 26.1485 12.9722 26.1477 12.988C26.1477 13.0148 26.1279 13.0303 26.0912 13.0303H25.5974C25.5743 13.031 25.5513 13.0272 25.5296 13.019C25.5088 13.0085 25.4908 12.993 25.4774 12.9739L24.3062 11.4781C24.2929 11.4596 24.2761 11.4437 24.2568 11.4315C24.2368 11.4229 24.2151 11.4191 24.1933 11.4202H23.4878C23.4638 11.4202 23.4525 11.4329 23.4525 11.4569V12.9584C23.4543 12.9687 23.4534 12.9793 23.45 12.9892C23.4467 12.9991 23.4408 13.0079 23.4331 13.015C23.4253 13.022 23.4159 13.027 23.4058 13.0294C23.3956 13.0319 23.385 13.0317 23.3749 13.0289ZM23.4454 8.62484V10.8826C23.4454 10.9052 23.4567 10.9165 23.4807 10.9165H24.3203C24.6505 10.9304 24.9751 10.8281 25.2375 10.6272C25.4774 10.4353 25.5974 10.1432 25.5974 9.75373C25.5974 9.36426 25.4774 9.07075 25.2375 8.87884C24.9741 8.6805 24.6496 8.58065 24.3203 8.59662H23.4807C23.4567 8.59098 23.4454 8.60791 23.4454 8.62484Z" fill="#121019"/>
<path id="Vector_9" d="M27.5052 12.8941C27.255 12.7543 27.0507 12.545 26.9168 12.2915C26.7789 12.0125 26.7072 11.7054 26.7072 11.3941C26.7072 11.0828 26.7789 10.7757 26.9168 10.4966C27.0461 10.2462 27.2444 10.0381 27.4883 9.89689C27.7362 9.75428 28.018 9.68115 28.3039 9.68522C28.5871 9.68191 28.8659 9.75504 29.1111 9.89689C29.3493 10.0349 29.5446 10.2361 29.6755 10.4783C29.8139 10.7352 29.8843 11.0232 29.8801 11.3151C29.8807 11.3692 29.8783 11.4234 29.8731 11.4773C29.87 11.4936 29.8612 11.5083 29.8483 11.5187C29.8353 11.529 29.8191 11.5344 29.8025 11.5338H27.3119C27.254 11.5338 27.2343 11.5634 27.2484 11.6255C27.2724 11.9076 27.3989 12.1711 27.604 12.3663C27.8132 12.5561 28.0879 12.6572 28.3702 12.6485C28.5443 12.6486 28.7165 12.6122 28.8757 12.5418C29.0349 12.4713 29.1775 12.3683 29.2945 12.2393C29.3467 12.1871 29.3862 12.1772 29.4145 12.2097L29.6473 12.4651C29.6797 12.4933 29.6797 12.523 29.6473 12.5568C29.4831 12.7287 29.2864 12.8664 29.0687 12.9618C28.8497 13.0568 28.6132 13.1049 28.3745 13.1029C28.0715 13.1101 27.7719 13.0382 27.5052 12.8941ZM29.3284 11.0399C29.2925 10.79 29.1689 10.5609 28.9798 10.3936C28.7914 10.2306 28.5488 10.144 28.2997 10.1509C28.047 10.1452 27.8013 10.2343 27.6111 10.4007C27.4212 10.5673 27.2975 10.7967 27.2625 11.0469L27.254 11.0808C27.254 11.109 27.278 11.1246 27.3246 11.1246H29.2663C29.3227 11.1246 29.351 11.0963 29.3284 11.0399Z" fill="#121019"/>
<path id="Vector_10" d="M31.3264 14.3366C31.1175 14.2459 30.93 14.1122 30.7761 13.9443C30.7693 13.938 30.764 13.9303 30.7603 13.9218C30.7566 13.9133 30.7547 13.9042 30.7547 13.8949C30.7547 13.8857 30.7566 13.8765 30.7603 13.868C30.764 13.8595 30.7693 13.8519 30.7761 13.8455L31.016 13.5845C31.0283 13.5695 31.046 13.5598 31.0654 13.5577C31.0842 13.56 31.1014 13.5697 31.1133 13.5845C31.3313 13.8175 31.6253 13.9652 31.9424 14.0009C32.2596 14.0366 32.579 13.958 32.8434 13.7792C32.9392 13.6919 33.0137 13.5838 33.0612 13.4632C33.1087 13.3426 33.1278 13.2127 33.1171 13.0835V12.5981C33.1182 12.5907 33.1168 12.5831 33.1132 12.5765C33.1097 12.5699 33.1041 12.5646 33.0974 12.5614C33.0878 12.5606 33.0782 12.5621 33.0694 12.5657C33.0605 12.5694 33.0527 12.5752 33.0466 12.5826C32.9109 12.7094 32.7512 12.8079 32.577 12.8723C32.4028 12.9368 32.2175 12.9659 32.032 12.9579C31.7522 12.9617 31.4764 12.8905 31.2333 12.7519C30.9943 12.6169 30.7985 12.4167 30.6688 12.1748C30.5285 11.9099 30.4581 11.6137 30.4642 11.314C30.4592 11.0181 30.5322 10.7261 30.6759 10.4673C30.8107 10.2262 31.0095 10.027 31.2502 9.8916C31.4976 9.75497 31.7762 9.68496 32.0588 9.6884C32.2474 9.67842 32.436 9.70832 32.6123 9.77615C32.7886 9.84399 32.9486 9.94824 33.0818 10.0821C33.1002 10.1019 33.1157 10.1089 33.127 10.1047C33.1383 10.1004 33.1453 10.0849 33.1453 10.0609V9.82528C33.1457 9.80668 33.1533 9.78894 33.1664 9.77579C33.1796 9.76264 33.1973 9.75509 33.2159 9.75472H33.5616C33.5712 9.7533 33.581 9.75414 33.5902 9.75718C33.5994 9.76022 33.6078 9.76537 33.6147 9.77223C33.6215 9.77909 33.6267 9.78746 33.6297 9.79668C33.6328 9.80589 33.6336 9.81568 33.6322 9.82528V13.123C33.6419 13.3116 33.6078 13.4999 33.5324 13.673C33.4569 13.8462 33.3423 13.9994 33.1976 14.1207C32.875 14.3689 32.4753 14.4953 32.0687 14.4777C31.8141 14.4835 31.5611 14.4354 31.3264 14.3366ZM32.7023 12.3512C32.8601 12.2674 32.9937 12.1445 33.0903 11.9942C33.1143 11.9567 33.1265 11.913 33.1256 11.8686V10.7693C33.1277 10.7247 33.1154 10.6807 33.0903 10.6437C32.9947 10.4919 32.8609 10.3678 32.7023 10.2839C32.526 10.1921 32.3295 10.146 32.1308 10.1498C31.9786 10.1436 31.8268 10.1692 31.6851 10.2251C31.5434 10.281 31.415 10.3659 31.3081 10.4744C31.2017 10.5873 31.1192 10.7204 31.0654 10.8659C31.0115 11.0113 30.9875 11.1661 30.9948 11.3211C30.9884 11.4759 31.0128 11.6304 31.0666 11.7758C31.1204 11.9211 31.2025 12.0543 31.3081 12.1677C31.4152 12.276 31.5436 12.3607 31.6852 12.4166C31.8269 12.4725 31.9786 12.4983 32.1308 12.4923C32.3301 12.494 32.5266 12.4455 32.7023 12.3512Z" fill="#121019"/>
<path id="Vector_11" d="M34.6949 8.87601C34.658 8.84098 34.6286 8.79872 34.6087 8.75187C34.5888 8.70502 34.5788 8.65457 34.5792 8.60366C34.5787 8.55358 34.5887 8.50395 34.6087 8.458C34.6286 8.41206 34.658 8.37082 34.6949 8.33697C34.7302 8.30049 34.7725 8.27155 34.8193 8.2519C34.8662 8.23226 34.9165 8.22231 34.9672 8.22267C35.0163 8.22285 35.0647 8.23309 35.1096 8.25275C35.1545 8.27241 35.1949 8.30108 35.2283 8.33697C35.2643 8.37138 35.2929 8.41279 35.3123 8.45866C35.3317 8.50452 35.3415 8.55386 35.3412 8.60366C35.3415 8.65429 35.3316 8.70447 35.3123 8.75124C35.2929 8.79802 35.2643 8.84044 35.2283 8.87601C35.1953 8.91255 35.155 8.94182 35.1101 8.96198C35.0651 8.98215 35.0165 8.99275 34.9672 8.99313C34.9162 8.99329 34.8658 8.98297 34.8189 8.96283C34.7721 8.94268 34.7299 8.91313 34.6949 8.87601ZM34.6949 12.9583V9.82568C34.6935 9.81609 34.6943 9.80629 34.6973 9.79708C34.7004 9.78787 34.7055 9.7795 34.7124 9.77264C34.7193 9.76578 34.7276 9.76062 34.7368 9.75758C34.7461 9.75454 34.7559 9.7537 34.7654 9.75513H35.1394C35.149 9.7537 35.1588 9.75454 35.168 9.75758C35.1772 9.76062 35.1856 9.76578 35.1924 9.77264C35.1993 9.7795 35.2045 9.78787 35.2075 9.79708C35.2105 9.80629 35.2114 9.81609 35.2099 9.82568V12.9583C35.2114 12.9679 35.2105 12.9777 35.2075 12.987C35.2045 12.9962 35.1993 13.0045 35.1924 13.0114C35.1856 13.0183 35.1772 13.0234 35.168 13.0265C35.1588 13.0295 35.149 13.0303 35.1394 13.0289H34.7697C34.7601 13.0303 34.7503 13.0295 34.7411 13.0265C34.7319 13.0234 34.7235 13.0183 34.7166 13.0114C34.7098 13.0045 34.7046 12.9962 34.7016 12.987C34.6985 12.9777 34.6977 12.9679 34.6991 12.9583H34.6949Z" fill="#121019"/>
<path id="Vector_12" d="M36.8536 12.8941C36.6034 12.7543 36.399 12.545 36.2652 12.2915C36.1273 12.0125 36.0556 11.7054 36.0556 11.3941C36.0556 11.0828 36.1273 10.7757 36.2652 10.4966C36.3926 10.2472 36.5883 10.0391 36.8296 9.89689C37.0775 9.75428 37.3593 9.68115 37.6452 9.68522C37.9284 9.68191 38.2073 9.75504 38.4524 9.89689C38.6906 10.0349 38.886 10.2361 39.0168 10.4783C39.1577 10.7346 39.2305 11.0226 39.2285 11.3151C39.229 11.3692 39.2267 11.4234 39.2215 11.4773C39.2187 11.4938 39.21 11.5086 39.197 11.519C39.1839 11.5294 39.1675 11.5347 39.1509 11.5338H36.6603C36.6038 11.5338 36.5827 11.5634 36.5968 11.6255C36.6208 11.9076 36.7473 12.1711 36.9524 12.3663C37.1616 12.5561 37.4363 12.6572 37.7186 12.6485C37.8927 12.6486 38.0649 12.6122 38.2241 12.5418C38.3833 12.4713 38.5259 12.3683 38.6429 12.2393C38.6951 12.1871 38.7346 12.1772 38.7628 12.2097L38.9957 12.4651C39.0281 12.4933 39.0281 12.523 38.9957 12.5568C38.8309 12.7317 38.6327 12.8718 38.4129 12.9689C38.1939 13.0639 37.9574 13.112 37.7186 13.11C37.4164 13.1143 37.1183 13.0399 36.8536 12.8941ZM38.6782 11.0399C38.6411 10.7903 38.5178 10.5617 38.3296 10.3936C38.1368 10.2345 37.8946 10.1475 37.6445 10.1475C37.3945 10.1475 37.1523 10.2345 36.9595 10.3936C36.7696 10.5603 36.6459 10.7896 36.6109 11.0399L36.6038 11.0738C36.6038 11.102 36.6264 11.1175 36.6744 11.1175H38.6147C38.6711 11.1222 38.6923 11.0963 38.6782 11.0399Z" fill="#121019"/>
<path id="Vector_13" d="M41.5642 9.69205C41.6065 9.69205 41.6277 9.71463 41.6277 9.76261V10.1366C41.6277 10.1775 41.6107 10.1986 41.5783 10.1986C41.5442 10.1989 41.5101 10.1955 41.4767 10.1888C41.4451 10.182 41.413 10.1782 41.3807 10.1775C41.2257 10.1742 41.0725 10.2116 40.9363 10.2858C40.8002 10.3601 40.6858 10.4687 40.6046 10.6008C40.5703 10.6526 40.553 10.7137 40.5552 10.7758V12.9588C40.5566 12.9684 40.5558 12.9782 40.5528 12.9874C40.5497 12.9966 40.5446 13.005 40.5377 13.0118C40.5309 13.0187 40.5225 13.0238 40.5133 13.0269C40.5041 13.0299 40.4943 13.0308 40.4847 13.0293H40.1107C40.1011 13.0308 40.0913 13.0299 40.0821 13.0269C40.0729 13.0238 40.0645 13.0187 40.0577 13.0118C40.0508 13.005 40.0457 12.9966 40.0426 12.9874C40.0396 12.9782 40.0387 12.9684 40.0402 12.9588V9.82611C40.0387 9.81651 40.0396 9.80671 40.0426 9.7975C40.0457 9.78829 40.0508 9.77992 40.0577 9.77306C40.0645 9.7662 40.0729 9.76104 40.0821 9.758C40.0913 9.75496 40.1011 9.75412 40.1107 9.75555H40.4494C40.459 9.75412 40.4688 9.75496 40.478 9.758C40.4872 9.76104 40.4956 9.7662 40.5024 9.77306C40.5093 9.77992 40.5145 9.78829 40.5175 9.7975C40.5205 9.80671 40.5214 9.81651 40.5199 9.82611V10.0787C40.5199 10.0984 40.5199 10.1097 40.5341 10.1154C40.5482 10.121 40.5552 10.1154 40.5693 10.1013C40.6745 9.96653 40.8096 9.85813 40.9639 9.78465C41.1182 9.71117 41.2875 9.67464 41.4583 9.67794C41.494 9.67895 41.5295 9.68368 41.5642 9.69205Z" fill="#121019"/>
<path id="Vector_14" d="M42.7309 12.8939C42.4807 12.7541 42.2763 12.5448 42.1425 12.2914C42.0042 12.0124 41.9323 11.7053 41.9323 11.3939C41.9323 11.0826 42.0042 10.7754 42.1425 10.4964C42.2701 10.2472 42.4658 10.0392 42.7069 9.89672C42.9551 9.75793 43.2347 9.68506 43.519 9.68506C43.8034 9.68506 44.083 9.75793 44.3311 9.89672C44.5691 10.035 44.7644 10.2361 44.8956 10.4781C45.0348 10.7347 45.1052 11.023 45.1002 11.3149C45.103 11.3689 45.103 11.4231 45.1002 11.4772C45.0971 11.4935 45.0883 11.5081 45.0754 11.5185C45.0624 11.5289 45.0462 11.5342 45.0296 11.5336H42.5376C42.4812 11.5336 42.46 11.5632 42.4741 11.6253C42.4985 11.9076 42.6255 12.1712 42.8311 12.3662C43.0397 12.5561 43.314 12.6573 43.5959 12.6484C43.77 12.6484 43.9422 12.6121 44.1014 12.5416C44.2606 12.4711 44.4032 12.3681 44.5202 12.2392C44.571 12.187 44.6119 12.1771 44.6401 12.2095L44.873 12.4579C44.9054 12.4861 44.9054 12.5157 44.873 12.5496C44.7084 12.7241 44.5108 12.8642 44.2916 12.9617C44.0721 13.0567 43.8351 13.1047 43.5959 13.1028C43.2944 13.1092 42.9963 13.0373 42.7309 12.8939ZM44.5555 11.0397C44.5191 10.7896 44.395 10.5606 44.2055 10.3934C44.0176 10.2296 43.7746 10.1429 43.5254 10.1507C43.2727 10.145 43.027 10.2341 42.8368 10.4005C42.6469 10.5672 42.5232 10.7965 42.4882 11.0468L42.4811 11.0806C42.4811 11.1089 42.5051 11.1244 42.5517 11.1244H44.492C44.5484 11.1244 44.5696 11.0962 44.5555 11.0397Z" fill="#121019"/>
<path id="Vector_15" d="M46.3618 13.0291H45.9879C45.9783 13.0306 45.9685 13.0297 45.9593 13.0267C45.95 13.0237 45.9417 13.0185 45.9348 13.0116C45.928 13.0048 45.9228 12.9964 45.9198 12.9872C45.9167 12.978 45.9159 12.9682 45.9173 12.9586V9.82593C45.9159 9.81634 45.9167 9.80654 45.9198 9.79733C45.9228 9.78812 45.928 9.77974 45.9348 9.77288C45.9417 9.76602 45.95 9.76087 45.9593 9.75783C45.9685 9.75479 45.9783 9.75395 45.9879 9.75538H46.3265C46.3361 9.75395 46.3459 9.75479 46.3551 9.75783C46.3643 9.76087 46.3727 9.76602 46.3796 9.77288C46.3864 9.77974 46.3916 9.78812 46.3946 9.79733C46.3977 9.80654 46.3985 9.81634 46.3971 9.82593V10.0574C46.3971 10.0771 46.3971 10.0884 46.414 10.094C46.4309 10.0997 46.4394 10.094 46.4535 10.0729C46.558 9.95472 46.6852 9.85875 46.8275 9.79065C46.9778 9.72164 47.1419 9.68785 47.3072 9.69188C47.4556 9.68187 47.6043 9.70293 47.7441 9.75372C47.8838 9.8045 48.0114 9.88389 48.1186 9.9868C48.3141 10.1975 48.4181 10.4771 48.4079 10.7643V12.9586C48.4093 12.9682 48.4085 12.978 48.4055 12.9872C48.4024 12.9964 48.3973 13.0048 48.3904 13.0116C48.3835 13.0185 48.3752 13.0237 48.366 13.0267C48.3567 13.0297 48.3469 13.0306 48.3374 13.0291H47.9634C47.9538 13.0306 47.944 13.0297 47.9348 13.0267C47.9256 13.0237 47.9172 13.0185 47.9104 13.0116C47.9035 13.0048 47.8983 12.9964 47.8953 12.9872C47.8923 12.978 47.8914 12.9682 47.8929 12.9586V10.8419C47.8996 10.7469 47.8875 10.6515 47.8572 10.5611C47.827 10.4708 47.7791 10.3874 47.7165 10.3156C47.6484 10.2528 47.5682 10.2046 47.4809 10.1738C47.3936 10.143 47.3009 10.1302 47.2085 10.1364C47.0587 10.1346 46.9117 10.1763 46.7851 10.2563C46.6523 10.3428 46.5431 10.4612 46.4676 10.6006C46.4442 10.647 46.4321 10.6983 46.4324 10.7502V12.9515C46.4351 12.9616 46.4353 12.9723 46.4329 12.9824C46.4304 12.9926 46.4255 13.002 46.4184 13.0098C46.4114 13.0175 46.4025 13.0233 46.3926 13.0267C46.3827 13.0301 46.3721 13.0309 46.3618 13.0291Z" fill="#121019"/>
<path id="Vector_16" d="M51.9709 7.9206H52.3519C52.3615 7.91917 52.3713 7.92001 52.3805 7.92305C52.3897 7.92609 52.3981 7.93125 52.4049 7.93811C52.4118 7.94497 52.417 7.95334 52.42 7.96255C52.423 7.97176 52.4239 7.98156 52.4225 7.99115V12.9583C52.4239 12.9679 52.423 12.9777 52.42 12.9869C52.417 12.9961 52.4118 13.0044 52.4049 13.0113C52.3981 13.0182 52.3897 13.0233 52.3805 13.0264C52.3713 13.0294 52.3615 13.0302 52.3519 13.0288H51.9991C51.9895 13.0302 51.9797 13.0294 51.9705 13.0264C51.9613 13.0233 51.9529 13.0182 51.9461 13.0113C51.9392 13.0044 51.9341 12.9961 51.931 12.9869C51.928 12.9777 51.9271 12.9679 51.9286 12.9583V12.7113C51.9286 12.6873 51.9286 12.6746 51.9102 12.6718C51.8919 12.669 51.8834 12.6718 51.8651 12.6972C51.6252 12.9639 51.2766 13.0994 50.8208 13.0994C50.5335 13.103 50.2506 13.0284 50.0024 12.8835C49.7578 12.7396 49.5577 12.5311 49.4239 12.2809C49.2849 12.0052 49.2125 11.7007 49.2125 11.3919C49.2125 11.0832 49.2849 10.7787 49.4239 10.5029C49.5578 10.2525 49.7579 10.0436 50.0024 9.89897C50.251 9.75515 50.5337 9.68105 50.8208 9.68448C51.0064 9.67667 51.1916 9.70556 51.366 9.76949C51.5403 9.83342 51.7003 9.93113 51.8368 10.057C51.8552 10.0768 51.8707 10.0838 51.882 10.0782C51.8933 10.0725 51.9003 10.0598 51.9003 10.0359V7.99115C51.8989 7.98156 51.8998 7.97176 51.9028 7.96255C51.9058 7.95334 51.911 7.94497 51.9179 7.93811C51.9247 7.93125 51.9331 7.92609 51.9423 7.92305C51.9515 7.92001 51.9613 7.91917 51.9709 7.9206ZM51.477 12.4912C51.6412 12.4028 51.7779 12.271 51.8721 12.1102C51.89 12.0757 51.8997 12.0375 51.9003 11.9987V10.7851C51.8999 10.7458 51.8902 10.7072 51.8721 10.6723C51.7779 10.5114 51.6412 10.3796 51.477 10.2913C51.2996 10.195 51.1003 10.1464 50.8985 10.1502C50.7411 10.1429 50.584 10.1697 50.4379 10.2286C50.2918 10.2875 50.1601 10.3772 50.0518 10.4916C49.8308 10.7375 49.7153 11.0603 49.7301 11.3905C49.7147 11.7212 49.8303 12.0447 50.0518 12.2908C50.1601 12.4052 50.2918 12.4949 50.4379 12.5539C50.584 12.6128 50.7411 12.6395 50.8985 12.6323C51.1003 12.6361 51.2996 12.5875 51.477 12.4912Z" fill="#121019"/>
<path id="Vector_17" d="M53.9845 12.8939C53.7343 12.7541 53.5299 12.5448 53.396 12.2914C53.2577 12.0124 53.1858 11.7053 53.1858 11.3939C53.1858 11.0826 53.2577 10.7754 53.396 10.4965C53.5253 10.2461 53.7236 10.0379 53.9675 9.89674C54.2154 9.75794 54.4948 9.68506 54.7789 9.68506C55.063 9.68506 55.3424 9.75794 55.5903 9.89674C55.8283 10.035 56.0236 10.2361 56.1547 10.4781C56.2939 10.7347 56.3644 11.023 56.3594 11.3149C56.3622 11.369 56.3622 11.4231 56.3594 11.4772C56.3563 11.4935 56.3475 11.5082 56.3346 11.5185C56.3216 11.5289 56.3054 11.5342 56.2888 11.5336H53.7911C53.7347 11.5336 53.7135 11.5633 53.7276 11.6254C53.752 11.9076 53.8791 12.1712 54.0846 12.3662C54.2932 12.5561 54.5675 12.6573 54.8495 12.6484C55.0236 12.6485 55.1957 12.6121 55.3549 12.5416C55.5141 12.4711 55.6568 12.3681 55.7737 12.2392C55.8245 12.187 55.8655 12.1771 55.8937 12.2095L56.1265 12.465C56.159 12.4932 56.159 12.5228 56.1265 12.5567C55.962 12.7312 55.7643 12.8713 55.5451 12.9687C55.3256 13.0637 55.0887 13.1118 54.8495 13.1098C54.5473 13.1142 54.2492 13.0398 53.9845 12.8939ZM55.809 11.0397C55.7719 10.7893 55.6468 10.5602 55.4562 10.3935C55.2683 10.2296 55.0253 10.1429 54.7761 10.1507C54.5234 10.1451 54.2778 10.2342 54.0875 10.4005C53.8976 10.5672 53.7739 10.7966 53.7389 11.0468L53.7319 11.0807C53.7319 11.1089 53.7559 11.1244 53.8024 11.1244H55.7427C55.801 11.1244 55.8231 11.0962 55.809 11.0397Z" fill="#121019"/>
<path id="Vector_18" d="M61.3832 8.25911C61.5876 8.36258 61.7569 8.52407 61.87 8.72336C61.9824 8.92918 62.0398 9.16055 62.0365 9.39505C62.0393 9.61429 61.9817 9.83006 61.87 10.0188C61.7663 10.2006 61.6151 10.3509 61.4326 10.4534C61.386 10.4816 61.386 10.507 61.4326 10.531C61.6473 10.6358 61.8277 10.7997 61.9527 11.0034C62.0776 11.207 62.142 11.4421 62.1381 11.681C62.144 11.8619 62.1119 12.0421 62.0438 12.2098C61.9758 12.3775 61.8733 12.5291 61.743 12.6547C61.4787 12.9087 61.1071 13.0357 60.6282 13.0357H59.203C59.1934 13.0371 59.1836 13.0363 59.1744 13.0333C59.1652 13.0302 59.1568 13.0251 59.15 13.0182C59.1431 13.0113 59.1379 13.003 59.1349 12.9938C59.1319 12.9845 59.131 12.9748 59.1325 12.9652V8.16738C59.131 8.15779 59.1319 8.14799 59.1349 8.13878C59.1379 8.12957 59.1431 8.1212 59.15 8.11434C59.1568 8.10748 59.1652 8.10232 59.1744 8.09928C59.1836 8.09624 59.1934 8.0954 59.203 8.09683H60.6141C60.8799 8.08691 61.144 8.14265 61.3832 8.25911ZM59.6588 8.62458V10.2262C59.6588 10.2502 59.6701 10.2629 59.6941 10.2629H60.5549C60.8069 10.2803 61.0562 10.2022 61.2533 10.0442C61.335 9.96502 61.3987 9.86925 61.4401 9.76334C61.4815 9.65743 61.4996 9.54386 61.4932 9.43033C61.4996 9.31617 61.4814 9.20197 61.4401 9.09538C61.3987 8.98879 61.335 8.89226 61.2533 8.81226C61.0575 8.65159 60.8075 8.57227 60.5549 8.59072H59.6898C59.6659 8.59072 59.6546 8.60765 59.6546 8.62458H59.6588ZM59.6588 10.7977V12.491C59.6588 12.515 59.6701 12.5277 59.6941 12.5277H60.5831C60.8559 12.5475 61.1262 12.4644 61.3408 12.2949C61.5066 12.1194 61.5989 11.8871 61.5989 11.6458C61.5989 11.4044 61.5066 11.1722 61.3408 10.9967C61.1262 10.8271 60.8559 10.7441 60.5831 10.7638H59.6898C59.6659 10.7638 59.6546 10.7751 59.6546 10.7977H59.6588Z" fill="#121019"/>
<path id="Vector_19" d="M65.0591 9.75512H65.433C65.4426 9.75369 65.4524 9.75453 65.4616 9.75757C65.4708 9.76061 65.4792 9.76577 65.4861 9.77263C65.4929 9.77949 65.4981 9.78786 65.5011 9.79707C65.5042 9.80628 65.505 9.81608 65.5036 9.82568V12.9583C65.505 12.9679 65.5042 12.9777 65.5011 12.9869C65.4981 12.9962 65.4929 13.0045 65.4861 13.0114C65.4792 13.0182 65.4708 13.0234 65.4616 13.0264C65.4524 13.0295 65.4426 13.0303 65.433 13.0289H65.0943C65.0848 13.0303 65.075 13.0295 65.0657 13.0264C65.0565 13.0234 65.0482 13.0182 65.0413 13.0114C65.0344 13.0045 65.0293 12.9962 65.0262 12.9869C65.0232 12.9777 65.0224 12.9679 65.0238 12.9583V12.7241C65.0238 12.7057 65.0238 12.6945 65.0055 12.6902C64.9871 12.686 64.9786 12.6902 64.9603 12.7114C64.8565 12.8364 64.7258 12.9362 64.578 13.0034C64.4301 13.0706 64.2689 13.1034 64.1066 13.0994C63.958 13.1086 63.8093 13.0863 63.6699 13.034C63.5306 12.9817 63.4039 12.9006 63.298 12.7961C63.1056 12.5845 63.0042 12.3057 63.0158 12.02V9.82568C63.0144 9.81608 63.0152 9.80628 63.0182 9.79707C63.0213 9.78786 63.0264 9.77949 63.0333 9.77263C63.0402 9.76577 63.0485 9.76061 63.0577 9.75757C63.067 9.75453 63.0767 9.75369 63.0863 9.75512H63.4603C63.4699 9.75369 63.4797 9.75453 63.4889 9.75757C63.4981 9.76061 63.5065 9.76577 63.5133 9.77263C63.5202 9.77949 63.5253 9.78786 63.5284 9.79707C63.5314 9.80628 63.5323 9.81608 63.5308 9.82568V11.9423C63.5239 12.0372 63.5359 12.1324 63.5662 12.2226C63.5965 12.3127 63.6444 12.3959 63.7072 12.4673C63.7751 12.5305 63.8552 12.5791 63.9425 12.6102C64.0299 12.6413 64.1227 12.6541 64.2152 12.6479C64.3649 12.649 64.5117 12.6074 64.6386 12.5279C64.7715 12.4409 64.8806 12.3221 64.9561 12.1822C64.9779 12.1383 64.99 12.0902 64.9913 12.0411V9.82568C64.99 9.81634 64.9908 9.80683 64.9937 9.79786C64.9966 9.78889 65.0015 9.78069 65.008 9.77389C65.0145 9.76709 65.0225 9.76187 65.0314 9.75862C65.0402 9.75536 65.0497 9.75417 65.0591 9.75512ZM63.3022 8.876C63.2662 8.84043 63.2377 8.79801 63.2183 8.75123C63.1989 8.70446 63.1891 8.65429 63.1894 8.60366C63.1894 8.50261 63.2295 8.4057 63.3009 8.33425C63.3724 8.2628 63.4693 8.22266 63.5704 8.22266C63.6714 8.22266 63.7683 8.2628 63.8398 8.33425C63.9112 8.4057 63.9514 8.50261 63.9514 8.60366C63.9516 8.65429 63.9418 8.70446 63.9224 8.75123C63.903 8.79801 63.8745 8.84043 63.8385 8.876C63.8043 8.913 63.7628 8.94252 63.7167 8.96268C63.6705 8.98284 63.6207 8.9932 63.5704 8.99312C63.52 8.99346 63.47 8.98322 63.4239 8.96304C63.3777 8.94286 63.3362 8.91321 63.3022 8.876ZM64.6922 8.876C64.6559 8.84062 64.6272 8.79824 64.6078 8.75142C64.5884 8.7046 64.5787 8.65433 64.5793 8.60366C64.5811 8.50317 64.6218 8.40731 64.6929 8.33625C64.764 8.26519 64.8598 8.22447 64.9603 8.22266C65.0608 8.22447 65.1566 8.26519 65.2277 8.33625C65.2988 8.40731 65.3395 8.50317 65.3413 8.60366C65.3416 8.65429 65.3318 8.70446 65.3124 8.75123C65.293 8.79801 65.2644 8.84043 65.2284 8.876C65.1942 8.91293 65.1527 8.9424 65.1066 8.96255C65.0604 8.9827 65.0106 8.9931 64.9603 8.9931C64.9099 8.9931 64.8601 8.9827 64.814 8.96255C64.7679 8.9424 64.7264 8.91293 64.6922 8.876Z" fill="#121019"/>
<path id="Vector_20" d="M68.1001 9.69205C68.1424 9.69205 68.1636 9.71463 68.1636 9.76261V10.1366C68.1636 10.1775 68.1466 10.1986 68.1142 10.1986C68.0796 10.1987 68.0451 10.1954 68.0112 10.1888C67.9801 10.1819 67.9484 10.1782 67.9166 10.1775C67.7615 10.1741 67.6083 10.2114 67.4721 10.2856C67.3359 10.3599 67.2216 10.4686 67.1405 10.6008C67.1052 10.6521 67.0878 10.7136 67.0911 10.7758V12.9588C67.0925 12.9684 67.0917 12.9782 67.0887 12.9874C67.0856 12.9966 67.0805 13.005 67.0736 13.0118C67.0667 13.0187 67.0584 13.0238 67.0492 13.0269C67.0399 13.0299 67.0302 13.0308 67.0206 13.0293H66.6466C66.637 13.0308 66.6272 13.0299 66.618 13.0269C66.6088 13.0238 66.6004 13.0187 66.5936 13.0118C66.5867 13.005 66.5815 12.9966 66.5785 12.9874C66.5755 12.9782 66.5746 12.9684 66.5761 12.9588V9.82611C66.5746 9.81651 66.5755 9.80671 66.5785 9.7975C66.5815 9.78829 66.5867 9.77992 66.5936 9.77306C66.6004 9.7662 66.6088 9.76104 66.618 9.758C66.6272 9.75496 66.637 9.75412 66.6466 9.75555H66.9853C66.9949 9.75412 67.0047 9.75496 67.0139 9.758C67.0231 9.76104 67.0315 9.7662 67.0383 9.77306C67.0452 9.77992 67.0503 9.78829 67.0534 9.7975C67.0564 9.80671 67.0573 9.81651 67.0558 9.82611V10.0787C67.0558 10.0984 67.0558 10.1097 67.0699 10.1154C67.0841 10.121 67.0911 10.1154 67.1052 10.1013C67.2104 9.96653 67.3454 9.85813 67.4997 9.78465C67.654 9.71117 67.8233 9.67464 67.9942 9.67794C68.0299 9.67895 68.0654 9.68368 68.1001 9.69205Z" fill="#121019"/>
<path id="Vector_21" d="M69.3488 14.337C69.1399 14.2463 68.9524 14.1126 68.7985 13.9447C68.7917 13.9384 68.7864 13.9307 68.7827 13.9222C68.779 13.9137 68.7771 13.9046 68.7771 13.8953C68.7771 13.886 68.779 13.8769 68.7827 13.8684C68.7864 13.8599 68.7917 13.8522 68.7985 13.8459L69.0384 13.5849C69.0507 13.5698 69.0684 13.5602 69.0878 13.558C69.107 13.5606 69.1245 13.5702 69.1372 13.5849C69.2525 13.7242 69.3985 13.8349 69.5637 13.9083C69.729 13.9818 69.909 14.0159 70.0897 14.0082C70.3673 14.0251 70.6421 13.9437 70.8658 13.7782C70.9614 13.6907 71.0359 13.5826 71.0836 13.4621C71.1313 13.3415 71.1509 13.2117 71.1409 13.0825V12.5985C71.1425 12.5905 71.1413 12.5821 71.1374 12.5749C71.1336 12.5677 71.1273 12.5621 71.1198 12.559C71.1104 12.5581 71.101 12.5596 71.0924 12.5633C71.0838 12.567 71.0762 12.5728 71.0704 12.5801C70.9341 12.7065 70.7742 12.8048 70.5998 12.8692C70.4255 12.9336 70.2401 12.9629 70.0544 12.9555C69.775 12.9592 69.4997 12.8881 69.2571 12.7495C69.0179 12.6147 68.8221 12.4145 68.6927 12.1723C68.5523 11.9075 68.4819 11.6112 68.488 11.3116C68.483 11.0156 68.556 10.7236 68.6997 10.4649C68.8345 10.2238 69.0333 10.0246 69.274 9.88916C69.5214 9.75253 69.8 9.68251 70.0826 9.68596C70.2712 9.67597 70.4598 9.70587 70.6361 9.77371C70.8124 9.84155 70.9724 9.9458 71.1056 10.0797C71.124 10.0994 71.1395 10.1065 71.1508 10.1022C71.1621 10.098 71.1691 10.0825 71.1691 10.0585V9.82566C71.1695 9.80706 71.1771 9.78933 71.1902 9.77617C71.2034 9.76302 71.2211 9.75547 71.2397 9.75511H71.5854C71.595 9.75368 71.6048 9.75452 71.614 9.75756C71.6232 9.7606 71.6316 9.76575 71.6385 9.77261C71.6453 9.77947 71.6505 9.78785 71.6535 9.79706C71.6566 9.80627 71.6574 9.81607 71.656 9.82566V13.1234C71.6657 13.3119 71.6316 13.5 71.5565 13.6731C71.4813 13.8462 71.3671 13.9995 71.2228 14.1211C70.9 14.3688 70.5004 14.4952 70.0939 14.4781C69.8383 14.4843 69.5844 14.4362 69.3488 14.337ZM70.7247 12.3515C70.8851 12.2688 71.0212 12.1458 71.1198 11.9945C71.1437 11.9571 71.156 11.9134 71.155 11.8689V10.7697C71.1572 10.7251 71.1448 10.681 71.1198 10.6441C71.0241 10.4923 70.8903 10.3682 70.7317 10.2843C70.5554 10.1924 70.3589 10.1463 70.1602 10.1502C70.008 10.144 69.8562 10.1696 69.7145 10.2255C69.5729 10.2814 69.4444 10.3663 69.3375 10.4748C69.2312 10.5877 69.1486 10.7208 69.0948 10.8663C69.041 11.0117 69.017 11.1665 69.0243 11.3214C69.0179 11.4763 69.0423 11.6308 69.096 11.7762C69.1498 11.9215 69.2319 12.0547 69.3375 12.1681C69.4446 12.2764 69.5731 12.3611 69.7147 12.417C69.8563 12.4729 70.0081 12.4986 70.1602 12.4927C70.3571 12.4932 70.5511 12.4447 70.7247 12.3515Z" fill="#121019"/>
<path id="Vector_22" d="M73.2887 12.8939C73.0385 12.7541 72.8341 12.5448 72.7002 12.2914C72.5624 12.0123 72.4907 11.7052 72.4907 11.3939C72.4907 11.0826 72.5624 10.7755 72.7002 10.4964C72.8304 10.2466 73.0285 10.0387 73.2717 9.89672C73.5199 9.75793 73.7995 9.68506 74.0838 9.68506C74.3682 9.68506 74.6478 9.75793 74.8959 9.89672C75.1339 10.035 75.3292 10.2361 75.4604 10.4781C75.5996 10.7347 75.6701 11.023 75.665 11.3149C75.6655 11.3691 75.6632 11.4232 75.6579 11.4772C75.6549 11.4935 75.6461 11.5081 75.6331 11.5185C75.6202 11.5289 75.6039 11.5342 75.5874 11.5336H73.0954C73.0389 11.5336 73.0177 11.5632 73.0319 11.6253C73.0564 11.9073 73.1828 12.1707 73.3875 12.3662C73.5967 12.5559 73.8714 12.6571 74.1537 12.6484C74.3278 12.6484 74.4999 12.6121 74.6591 12.5416C74.8183 12.4711 74.961 12.3681 75.078 12.2392C75.1288 12.187 75.1697 12.1771 75.1979 12.2095L75.4307 12.4649C75.4632 12.4932 75.4632 12.5228 75.4307 12.5567C75.2662 12.7312 75.0686 12.8713 74.8494 12.9687C74.6298 13.0637 74.3929 13.1118 74.1537 13.1098C73.8515 13.1143 73.5533 13.0399 73.2887 12.8939ZM75.1132 11.0397C75.0768 10.7896 74.9528 10.5606 74.7633 10.3934C74.5753 10.2296 74.3324 10.1429 74.0831 10.1507C73.8304 10.145 73.5848 10.2341 73.3945 10.4005C73.2046 10.5672 73.0809 10.7965 73.046 11.0468V11.0806C73.046 11.1089 73.07 11.1244 73.1165 11.1244H75.0568C75.1085 11.1244 75.1273 11.0962 75.1132 11.0397Z" fill="#121019"/>
<path id="Vector_23" d="M77.9989 9.69205C78.0412 9.69205 78.0624 9.71463 78.0624 9.76261V10.1366C78.0624 10.1775 78.0454 10.1986 78.013 10.1986C77.9784 10.1986 77.9439 10.1953 77.91 10.1888C77.8789 10.1819 77.8472 10.1782 77.8154 10.1775C77.6603 10.1741 77.5071 10.2114 77.3709 10.2856C77.2347 10.3599 77.1204 10.4686 77.0393 10.6008C77.004 10.6521 76.9866 10.7136 76.9899 10.7758V12.9588C76.9913 12.9684 76.9905 12.9782 76.9875 12.9874C76.9844 12.9966 76.9793 13.005 76.9724 13.0118C76.9655 13.0187 76.9572 13.0238 76.948 13.0269C76.9388 13.0299 76.9289 13.0308 76.9194 13.0293H76.5454C76.5358 13.0308 76.526 13.0299 76.5168 13.0269C76.5076 13.0238 76.4992 13.0187 76.4924 13.0118C76.4855 13.005 76.4803 12.9966 76.4773 12.9874C76.4743 12.9782 76.4734 12.9684 76.4749 12.9588V9.82611C76.4734 9.81651 76.4743 9.80671 76.4773 9.7975C76.4803 9.78829 76.4855 9.77992 76.4924 9.77306C76.4992 9.7662 76.5076 9.76104 76.5168 9.758C76.526 9.75496 76.5358 9.75412 76.5454 9.75555H76.8841C76.8937 9.75412 76.9035 9.75496 76.9127 9.758C76.9219 9.76104 76.9303 9.7662 76.9371 9.77306C76.944 9.77992 76.9491 9.78829 76.9522 9.7975C76.9552 9.80671 76.9561 9.81651 76.9546 9.82611V10.0787C76.9546 10.0984 76.9546 10.1097 76.9687 10.1154C76.9829 10.121 76.9899 10.1154 77.004 10.1013C77.1092 9.96653 77.2442 9.85813 77.3985 9.78465C77.5529 9.71117 77.7221 9.67464 77.893 9.67794C77.9287 9.67895 77.9642 9.68368 77.9989 9.69205Z" fill="#121019"/>
<path id="Vector_24" d="M79.1632 13.0285H78.7892C78.7797 13.03 78.7699 13.0291 78.7606 13.0261C78.7514 13.023 78.7431 13.0179 78.7362 13.011C78.7293 13.0042 78.7242 12.9958 78.7211 12.9866C78.7181 12.9774 78.7173 12.9676 78.7187 12.958V9.82531C78.7173 9.81572 78.7181 9.80592 78.7211 9.79671C78.7242 9.7875 78.7293 9.77912 78.7362 9.77226C78.7431 9.76541 78.7514 9.76025 78.7606 9.75721C78.7699 9.75417 78.7797 9.75333 78.7892 9.75476H79.1279C79.1375 9.75333 79.1473 9.75417 79.1565 9.75721C79.1657 9.76025 79.1741 9.76541 79.181 9.77226C79.1878 9.77912 79.193 9.7875 79.196 9.79671C79.1991 9.80592 79.1999 9.81572 79.1985 9.82531V10.0567C79.1985 10.0765 79.1985 10.0878 79.2154 10.0934C79.2323 10.0991 79.2408 10.0934 79.2549 10.0723C79.3585 9.94714 79.4892 9.84719 79.6371 9.77997C79.785 9.71275 79.9462 9.68 80.1086 9.6842C80.311 9.67859 80.5115 9.72422 80.6914 9.81685C80.8496 9.90368 80.982 10.0307 81.0752 10.1851C81.0936 10.2176 81.1176 10.2176 81.1458 10.1851C81.2642 10.0377 81.4075 9.91215 81.5691 9.81402C81.7305 9.72364 81.9134 9.67877 82.0983 9.6842C82.2467 9.6749 82.3954 9.69699 82.5348 9.74902C82.6741 9.80105 82.8009 9.88186 82.9069 9.98618C83.099 10.1985 83.2003 10.4776 83.1891 10.7637V12.958C83.1905 12.9676 83.1897 12.9774 83.1866 12.9866C83.1836 12.9958 83.1784 13.0042 83.1716 13.011C83.1647 13.0179 83.1564 13.023 83.1471 13.0261C83.1379 13.0291 83.1281 13.03 83.1185 13.0285H82.7446C82.735 13.03 82.7252 13.0291 82.716 13.0261C82.7068 13.023 82.6984 13.0179 82.6915 13.011C82.6847 13.0042 82.6795 12.9958 82.6765 12.9866C82.6735 12.9774 82.6726 12.9676 82.674 12.958V10.8413C82.6808 10.7459 82.6683 10.6502 82.6372 10.5598C82.6062 10.4694 82.5573 10.3861 82.4934 10.315C82.4246 10.2537 82.3441 10.207 82.2569 10.1774C82.1696 10.1478 82.0773 10.1361 81.9854 10.1428C81.8341 10.1422 81.6857 10.1843 81.5572 10.2642C81.4286 10.344 81.3252 10.4585 81.2587 10.5944C81.2292 10.6458 81.2145 10.7044 81.2164 10.7637V12.958C81.2178 12.9676 81.217 12.9774 81.2139 12.9866C81.2109 12.9958 81.2057 13.0042 81.1988 13.011C81.192 13.0179 81.1836 13.023 81.1744 13.0261C81.1652 13.0291 81.1554 13.03 81.1458 13.0285H80.7719C80.7623 13.03 80.7525 13.0291 80.7433 13.0261C80.734 13.023 80.7257 13.0179 80.7188 13.011C80.712 13.0042 80.7068 12.9958 80.7038 12.9866C80.7007 12.9774 80.6999 12.9676 80.7013 12.958V10.8413C80.7081 10.7463 80.696 10.6509 80.6657 10.5605C80.6354 10.4702 80.5876 10.3867 80.5249 10.315C80.4568 10.2522 80.3767 10.204 80.2893 10.1732C80.202 10.1424 80.1093 10.1296 80.0169 10.1358C79.8672 10.134 79.7201 10.1756 79.5936 10.2557C79.4607 10.3422 79.3516 10.4606 79.2761 10.6C79.2521 10.6487 79.2401 10.7024 79.2408 10.7566V12.958C79.2426 12.9683 79.2418 12.9789 79.2384 12.9888C79.235 12.9987 79.2292 13.0076 79.2214 13.0146C79.2137 13.0216 79.2043 13.0266 79.1941 13.029C79.1839 13.0315 79.1733 13.0313 79.1632 13.0285Z" fill="#121019"/>
<path id="Vector_25" d="M84.7836 12.8939C84.5327 12.7546 84.3277 12.5452 84.1938 12.2914C84.0555 12.0124 83.9835 11.7053 83.9835 11.3939C83.9835 11.0826 84.0555 10.7754 84.1938 10.4965C84.3211 10.247 84.5169 10.039 84.7582 9.89674C85.0061 9.75794 85.2855 9.68506 85.5696 9.68506C85.8537 9.68506 86.1331 9.75794 86.381 9.89674C86.619 10.035 86.8143 10.2361 86.9454 10.4781C87.0846 10.7347 87.1551 11.023 87.15 11.3149C87.1529 11.369 87.1529 11.4231 87.15 11.4772C87.147 11.4935 87.1382 11.5082 87.1252 11.5185C87.1123 11.5289 87.096 11.5342 87.0795 11.5336H84.5889C84.5324 11.5336 84.5113 11.5633 84.5254 11.6254C84.5498 11.9076 84.6768 12.1712 84.8824 12.3662C85.0909 12.5561 85.3653 12.6573 85.6472 12.6484C85.8213 12.6485 85.9935 12.6121 86.1526 12.5416C86.3118 12.4711 86.4545 12.3681 86.5715 12.2392C86.6237 12.187 86.6632 12.1771 86.6914 12.2095L86.9242 12.4579C86.9567 12.4861 86.9567 12.5158 86.9242 12.5496C86.7597 12.7242 86.5621 12.8642 86.3429 12.9617C86.0953 13.066 85.8276 13.114 85.5591 13.1023C85.2907 13.0906 85.0282 13.0194 84.7907 12.8939H84.7836ZM86.6068 11.0397C86.5703 10.7897 86.4463 10.5606 86.2568 10.3935C86.0688 10.2296 85.8259 10.1429 85.5766 10.1507C85.324 10.1451 85.0783 10.2342 84.888 10.4005C84.6981 10.5672 84.5744 10.7966 84.5395 11.0468L84.5324 11.0807C84.5324 11.1089 84.5564 11.1244 84.603 11.1244H86.5432C86.5997 11.1244 86.6209 11.0962 86.6068 11.0397Z" fill="#121019"/>
<path id="Vector_26" d="M87.9642 8.876C87.9275 8.84077 87.8983 8.79847 87.8784 8.75167C87.8586 8.70486 87.8484 8.65451 87.8485 8.60366C87.8483 8.55363 87.8585 8.5041 87.8784 8.45821C87.8983 8.41231 87.9275 8.37103 87.9642 8.33696C87.9996 8.30061 88.0419 8.27176 88.0887 8.25212C88.1355 8.23249 88.1858 8.22247 88.2365 8.22266C88.2855 8.22268 88.3341 8.23284 88.379 8.25251C88.4239 8.27218 88.4643 8.30093 88.4976 8.33696C88.5354 8.37124 88.5656 8.41306 88.5862 8.45973C88.6069 8.50639 88.6175 8.55686 88.6175 8.60789C88.6178 8.65852 88.608 8.7087 88.5886 8.75547C88.5692 8.80224 88.5406 8.84466 88.5046 8.88024C88.4717 8.91691 88.4315 8.94628 88.3865 8.96645C88.3415 8.98662 88.2928 8.99715 88.2436 8.99736C88.1911 8.99778 88.1391 8.9872 88.091 8.9663C88.0429 8.94539 87.9997 8.91463 87.9642 8.876ZM87.9642 12.9583V9.82568C87.9627 9.81608 87.9636 9.80629 87.9666 9.79708C87.9697 9.78786 87.9748 9.77949 87.9817 9.77263C87.9885 9.76577 87.9969 9.76061 88.0061 9.75757C88.0153 9.75453 88.0251 9.75369 88.0347 9.75512H88.4087C88.4183 9.75369 88.4281 9.75453 88.4373 9.75757C88.4465 9.76061 88.4549 9.76577 88.4617 9.77263C88.4686 9.77949 88.4737 9.78786 88.4768 9.79708C88.4798 9.80629 88.4807 9.81608 88.4792 9.82568V12.9583C88.4807 12.9679 88.4798 12.9777 88.4768 12.9869C88.4737 12.9962 88.4686 13.0045 88.4617 13.0114C88.4549 13.0182 88.4465 13.0234 88.4373 13.0264C88.4281 13.0295 88.4183 13.0303 88.4087 13.0289H88.039C88.0294 13.0303 88.0196 13.0295 88.0103 13.0264C88.0011 13.0234 87.9928 13.0182 87.9859 13.0114C87.979 13.0045 87.9739 12.9962 87.9708 12.9869C87.9678 12.9777 87.967 12.9679 87.9684 12.9583H87.9642Z" fill="#121019"/>
<path id="Vector_27" d="M89.7295 12.8935C89.5387 12.7536 89.3986 12.5555 89.3302 12.3291V12.2994C89.3302 12.2712 89.3457 12.2529 89.3796 12.2444L89.7183 12.1245L89.7465 12.1174C89.7747 12.1174 89.7959 12.1357 89.81 12.1738C89.8473 12.3161 89.9331 12.4409 90.0527 12.5266C90.1646 12.6082 90.2995 12.6521 90.4379 12.6522C90.6009 12.6645 90.7625 12.614 90.8895 12.5111C90.9403 12.4641 90.9804 12.4068 91.0072 12.3431C91.034 12.2793 91.0467 12.2105 91.0447 12.1414C91.0482 12.075 91.0364 12.0086 91.0103 11.9474C90.9841 11.8863 90.9442 11.8319 90.8937 11.7886C90.7704 11.6936 90.6245 11.6323 90.4704 11.6108L90.1882 11.5558C89.9657 11.5191 89.7634 11.4052 89.6167 11.234C89.4944 11.0833 89.4213 10.8987 89.4074 10.7051C89.3935 10.5115 89.4395 10.3183 89.5391 10.1517C89.6306 10.0043 89.7616 9.88555 89.9172 9.80883C90.087 9.72526 90.2741 9.68318 90.4633 9.68606C90.699 9.67879 90.9306 9.74919 91.1223 9.88644C91.3099 10.0294 91.4433 10.2319 91.5005 10.4608L91.5075 10.489C91.5075 10.5186 91.4878 10.5384 91.4511 10.5539L91.1195 10.6386L91.0913 10.6456C91.063 10.6456 91.0447 10.6273 91.0348 10.5892C91.0047 10.4599 90.934 10.3437 90.833 10.2576C90.7283 10.1743 90.597 10.1317 90.4633 10.1376C90.3187 10.1304 90.1767 10.1777 90.0654 10.2703C90.0165 10.3119 89.9775 10.3639 89.9512 10.4225C89.9248 10.4811 89.9118 10.5447 89.913 10.6089C89.9088 10.6686 89.9173 10.7286 89.938 10.7848C89.9587 10.841 89.991 10.8921 90.0329 10.9349C90.1362 11.0202 90.2605 11.0762 90.3928 11.0972L90.675 11.1522C90.9113 11.1955 91.1288 11.3097 91.2987 11.4796C91.4641 11.6698 91.5505 11.916 91.5403 12.1678C91.5301 12.4197 91.4239 12.6581 91.2437 12.8342C91.0162 13.025 90.7245 13.1219 90.428 13.1052C90.1783 13.1129 89.933 13.0385 89.7295 12.8935Z" fill="#121019"/>
<path id="Vector_28" d="M92.5756 8.4778L92.9566 8.27178C92.9683 8.27008 92.9802 8.27008 92.9919 8.27178C93.0244 8.27178 93.0413 8.29013 93.0413 8.32823V9.72522C93.0406 9.73002 93.041 9.73492 93.0425 9.73953C93.044 9.74413 93.0466 9.74832 93.0501 9.75175C93.0535 9.75518 93.0577 9.75776 93.0623 9.75928C93.0669 9.7608 93.0718 9.76122 93.0766 9.7605H93.4646C93.4742 9.75907 93.484 9.75991 93.4932 9.76295C93.5024 9.76599 93.5108 9.77115 93.5177 9.77801C93.5245 9.78487 93.5297 9.79324 93.5327 9.80245C93.5358 9.81167 93.5366 9.82146 93.5352 9.83106V10.133C93.5366 10.1426 93.5358 10.1524 93.5327 10.1616C93.5297 10.1709 93.5245 10.1792 93.5177 10.1861C93.5108 10.1929 93.5024 10.1981 93.4932 10.2011C93.484 10.2042 93.4742 10.205 93.4646 10.2036H93.0766C93.0526 10.2036 93.0413 10.2163 93.0413 10.2403V12.9637C93.0427 12.9733 93.0419 12.9831 93.0388 12.9923C93.0358 13.0015 93.0307 13.0099 93.0238 13.0168C93.0169 13.0236 93.0086 13.0288 92.9993 13.0318C92.9901 13.0349 92.9803 13.0357 92.9707 13.0343H92.5968C92.5872 13.0357 92.5774 13.0349 92.5682 13.0318C92.559 13.0288 92.5506 13.0236 92.5438 13.0168C92.5369 13.0099 92.5317 13.0015 92.5287 12.9923C92.5256 12.9831 92.5248 12.9733 92.5262 12.9637V10.2346C92.5262 10.2106 92.515 10.1979 92.491 10.1979H92.1029C92.0933 10.1994 92.0835 10.1985 92.0743 10.1955C92.0651 10.1925 92.0567 10.1873 92.0499 10.1804C92.043 10.1736 92.0378 10.1652 92.0348 10.156C92.0318 10.1468 92.0309 10.137 92.0324 10.1274V9.82541C92.0309 9.81582 92.0318 9.80602 92.0348 9.79681C92.0378 9.7876 92.043 9.77923 92.0499 9.77237C92.0567 9.76551 92.0651 9.76035 92.0743 9.75731C92.0835 9.75427 92.0933 9.75343 92.1029 9.75486H92.491C92.4958 9.75557 92.5007 9.75515 92.5053 9.75363C92.5099 9.75211 92.5141 9.74953 92.5175 9.7461C92.5209 9.74267 92.5235 9.73849 92.525 9.73388C92.5265 9.72928 92.527 9.72438 92.5262 9.71958V8.56247C92.5245 8.54495 92.5283 8.52731 92.5372 8.5121C92.546 8.49688 92.5595 8.48488 92.5756 8.4778Z" fill="#121019"/>
<path id="Vector_29" d="M94.8081 12.8941C94.5579 12.7542 94.3536 12.545 94.2197 12.2915C94.0818 12.0124 94.0101 11.7053 94.0101 11.3941C94.0101 11.0828 94.0818 10.7757 94.2197 10.4966C94.3498 10.2468 94.548 10.0389 94.7912 9.89687C95.0392 9.75446 95.3209 9.68135 95.6068 9.6852C95.8901 9.68169 96.1689 9.75482 96.414 9.89687C96.6522 10.0349 96.8475 10.2361 96.9784 10.4782C97.1176 10.7349 97.1881 11.0231 97.183 11.315C97.1836 11.3692 97.1812 11.4234 97.176 11.4773C97.173 11.4936 97.1642 11.5083 97.1512 11.5187C97.1382 11.529 97.122 11.5344 97.1054 11.5338H94.6148C94.5584 11.5338 94.5372 11.5634 94.5513 11.6255C94.5753 11.9076 94.7018 12.1711 94.9069 12.3663C95.1162 12.556 95.3908 12.6572 95.6732 12.6485C95.8472 12.6486 96.0194 12.6122 96.1786 12.5417C96.3378 12.4713 96.4805 12.3682 96.5974 12.2393C96.6482 12.1871 96.6892 12.1772 96.7174 12.2097L96.9502 12.4651C96.9827 12.4933 96.9827 12.5229 96.9502 12.5568C96.7856 12.7313 96.588 12.8714 96.3688 12.9689C96.1493 13.0637 95.9123 13.1118 95.6732 13.11C95.371 13.1144 95.0728 13.04 94.8081 12.8941ZM96.6327 11.0399C96.5957 10.79 96.4718 10.5611 96.2828 10.3936C96.0948 10.2297 95.8518 10.143 95.6026 10.1509C95.3499 10.1452 95.1043 10.2343 94.914 10.4006C94.7241 10.5673 94.6004 10.7967 94.5654 11.0469V11.0808C94.5654 11.109 94.588 11.1245 94.636 11.1245H96.5763C96.6327 11.1245 96.6515 11.0963 96.6327 11.0399Z" fill="#121019"/>
<path id="Vector_30" d="M99.5184 9.69205C99.5607 9.69205 99.5819 9.71463 99.5819 9.76261V10.1366C99.5819 10.1775 99.5649 10.1986 99.5325 10.1986C99.4979 10.1986 99.4634 10.1953 99.4295 10.1888C99.3984 10.1819 99.3667 10.1782 99.3349 10.1775C99.1798 10.1741 99.0266 10.2114 98.8904 10.2856C98.7542 10.3599 98.6399 10.4686 98.5588 10.6008C98.5235 10.6521 98.5061 10.7136 98.5094 10.7758V12.9588C98.5108 12.9684 98.51 12.9782 98.507 12.9874C98.5039 12.9966 98.4988 13.005 98.4919 13.0118C98.485 13.0187 98.4767 13.0238 98.4675 13.0269C98.4582 13.0299 98.4484 13.0308 98.4388 13.0293H98.072C98.0624 13.0308 98.0526 13.0299 98.0434 13.0269C98.0341 13.0238 98.0258 13.0187 98.0189 13.0118C98.0121 13.005 98.0069 12.9966 98.0039 12.9874C98.0008 12.9782 98 12.9684 98.0014 12.9588V9.82611C98 9.81651 98.0008 9.80671 98.0039 9.7975C98.0069 9.78829 98.0121 9.77992 98.0189 9.77306C98.0258 9.7662 98.0341 9.76104 98.0434 9.758C98.0526 9.75496 98.0624 9.75412 98.072 9.75555H98.4106C98.4202 9.75412 98.43 9.75496 98.4392 9.758C98.4484 9.76104 98.4568 9.7662 98.4637 9.77306C98.4705 9.77992 98.4757 9.78829 98.4787 9.7975C98.4818 9.80671 98.4826 9.81651 98.4812 9.82611V10.0787C98.4812 10.0984 98.4812 10.1097 98.4953 10.1154C98.5094 10.121 98.5165 10.1154 98.5306 10.1013C98.6357 9.96653 98.7708 9.85813 98.9251 9.78465C99.0794 9.71117 99.2487 9.67464 99.4196 9.67794C99.4529 9.67943 99.486 9.68415 99.5184 9.69205Z" fill="#121019"/>
<path id="Vector_31" d="M12.1565 18.885H12.5587C12.6095 18.885 12.6292 18.9119 12.6151 18.9627L11.5709 22.1024C11.5646 22.1207 11.5522 22.1363 11.5357 22.1466C11.5193 22.1568 11.4998 22.1612 11.4806 22.1588H10.9359C10.9165 22.1612 10.8968 22.157 10.8801 22.1467C10.8634 22.1365 10.8508 22.1208 10.8442 22.1024L9.8056 18.9627V18.9344C9.8056 18.902 9.82677 18.885 9.8691 18.885H10.2642C10.2826 18.8835 10.301 18.8883 10.3164 18.8985C10.3318 18.9088 10.3432 18.9239 10.3489 18.9415L11.1955 21.5464C11.1968 21.5519 11.1998 21.5568 11.2042 21.5604C11.2085 21.5639 11.2139 21.566 11.2195 21.5662C11.2322 21.5662 11.2393 21.5591 11.2449 21.5464L12.0831 18.9415C12.0886 18.926 12.0984 18.9124 12.1114 18.9024C12.1245 18.8923 12.1401 18.8863 12.1565 18.885Z" fill="#121019"/>
<path id="Vector_32" d="M13.8598 22.0003C13.6109 21.8493 13.4064 21.6351 13.2672 21.3794C13.1263 21.1156 13.0527 20.8212 13.0527 20.5222C13.0527 20.2231 13.1263 19.9287 13.2672 19.6649C13.406 19.4089 13.6106 19.1946 13.8598 19.044C14.1161 18.8921 14.4086 18.812 14.7065 18.812C15.0044 18.812 15.2969 18.8921 15.5532 19.044C15.8027 19.1942 16.0074 19.4086 16.1458 19.6649C16.2875 19.9284 16.3616 20.223 16.3616 20.5222C16.3616 20.8213 16.2875 21.1159 16.1458 21.3794C16.007 21.6354 15.8024 21.8497 15.5532 22.0003C15.2966 22.1513 15.0042 22.2309 14.7065 22.2309C14.4088 22.2309 14.1164 22.1513 13.8598 22.0003ZM15.285 21.5911C15.4573 21.4807 15.5963 21.3256 15.6872 21.1423C15.7828 20.9493 15.8326 20.7368 15.8326 20.5214C15.8326 20.3061 15.7828 20.0936 15.6872 19.9006C15.5961 19.7178 15.4571 19.5632 15.285 19.4532C15.1104 19.3444 14.9087 19.2867 14.703 19.2867C14.4972 19.2867 14.2955 19.3444 14.1209 19.4532C13.9498 19.5625 13.811 19.7155 13.7187 19.8963C13.624 20.0896 13.5748 20.302 13.5748 20.5172C13.5748 20.7324 13.624 20.9448 13.7187 21.1381C13.8099 21.3212 13.9489 21.4762 14.1209 21.5868C14.2959 21.6947 14.4974 21.7519 14.703 21.7519C14.9085 21.7519 15.1101 21.6947 15.285 21.5868V21.5911Z" fill="#121019"/>
<path id="Vector_33" d="M17.6389 22.1548H17.265C17.2554 22.1562 17.2456 22.1554 17.2364 22.1523C17.2271 22.1493 17.2188 22.1441 17.2119 22.1373C17.2051 22.1304 17.1999 22.122 17.1969 22.1128C17.1938 22.1036 17.193 22.0938 17.1944 22.0842V18.9516C17.193 18.942 17.1938 18.9322 17.1969 18.923C17.1999 18.9138 17.2051 18.9054 17.2119 18.8985C17.2188 18.8917 17.2271 18.8865 17.2364 18.8835C17.2456 18.8804 17.2554 18.8796 17.265 18.881H17.6036C17.6132 18.8796 17.623 18.8804 17.6322 18.8835C17.6414 18.8865 17.6498 18.8917 17.6567 18.8985C17.6635 18.9054 17.6687 18.9138 17.6717 18.923C17.6748 18.9322 17.6756 18.942 17.6742 18.9516V19.1915C17.6742 19.2112 17.6742 19.2225 17.6911 19.2267C17.708 19.231 17.7165 19.2267 17.7306 19.2056C17.8342 19.0827 17.9613 18.982 18.1046 18.9092C18.2551 18.8409 18.4191 18.8072 18.5843 18.8105C18.7333 18.8017 18.8824 18.8241 19.0221 18.8763C19.1619 18.9286 19.2891 19.0095 19.3957 19.1138C19.591 19.3241 19.695 19.6032 19.685 19.89V22.0842C19.6864 22.0938 19.6856 22.1036 19.6826 22.1128C19.6795 22.122 19.6744 22.1304 19.6675 22.1373C19.6606 22.1441 19.6523 22.1493 19.6431 22.1523C19.6338 22.1554 19.624 22.1562 19.6145 22.1548H19.2405C19.2309 22.1562 19.2211 22.1554 19.2119 22.1523C19.2027 22.1493 19.1943 22.1441 19.1875 22.1373C19.1806 22.1304 19.1754 22.122 19.1724 22.1128C19.1694 22.1036 19.1685 22.0938 19.17 22.0842V19.9789C19.1765 19.8841 19.1643 19.7889 19.1341 19.6988C19.1038 19.6087 19.056 19.5255 18.9936 19.4539C18.9256 19.3909 18.8455 19.3424 18.7581 19.3114C18.6708 19.2803 18.5781 19.2674 18.4856 19.2733C18.3358 19.2715 18.1888 19.3132 18.0622 19.3932C17.9293 19.4803 17.8202 19.5991 17.7447 19.739C17.7212 19.7848 17.7091 19.8356 17.7095 19.8871V22.0885C17.7102 22.0977 17.7088 22.107 17.7055 22.1157C17.7021 22.1244 17.6969 22.1322 17.6901 22.1385C17.6833 22.1449 17.6752 22.1497 17.6663 22.1525C17.6575 22.1553 17.6481 22.1561 17.6389 22.1548Z" fill="#121019"/>
<path id="Vector_34" d="M24.93 17.3892C25.1348 17.4928 25.3043 17.6549 25.4169 17.8549C25.5292 18.0602 25.5866 18.2911 25.5834 18.5252C25.5853 18.742 25.5292 18.9554 25.4211 19.1433C25.3169 19.3244 25.1658 19.474 24.9836 19.5765C24.9371 19.6047 24.9371 19.6315 24.9836 19.6541C25.1949 19.7589 25.3731 19.9201 25.4987 20.1197C25.626 20.3251 25.6921 20.5625 25.6892 20.8041C25.6952 20.985 25.6631 21.1652 25.595 21.3329C25.527 21.5007 25.4245 21.6522 25.2941 21.7778C25.0302 22.0318 24.6591 22.1588 24.1779 22.1588H22.7541C22.7445 22.1602 22.7347 22.1594 22.7255 22.1563C22.7163 22.1533 22.7079 22.1481 22.701 22.1413C22.6942 22.1344 22.689 22.1261 22.686 22.1168C22.683 22.1076 22.6821 22.0978 22.6835 22.0882V17.2905C22.6821 17.2809 22.683 17.2711 22.686 17.2619C22.689 17.2527 22.6942 17.2443 22.701 17.2374C22.7079 17.2306 22.7163 17.2254 22.7255 17.2224C22.7347 17.2193 22.7445 17.2185 22.7541 17.2199H24.1652C24.4302 17.2129 24.6928 17.271 24.93 17.3892ZM23.2056 17.7561V19.3577C23.2049 19.3625 23.2054 19.3674 23.2069 19.372C23.2084 19.3767 23.211 19.3808 23.2144 19.3843C23.2178 19.3877 23.222 19.3903 23.2266 19.3918C23.2312 19.3933 23.2361 19.3937 23.2409 19.393H24.1017C24.3534 19.4112 24.6026 19.333 24.7988 19.1743C24.8812 19.0956 24.9454 19 24.9871 18.894C25.0287 18.788 25.0468 18.6742 25.0401 18.5605C25.0464 18.4464 25.0281 18.3323 24.9865 18.2259C24.9449 18.1195 24.8808 18.0233 24.7988 17.9438C24.6035 17.783 24.354 17.7032 24.1017 17.7209H23.2409C23.2361 17.7201 23.2312 17.7206 23.2266 17.7221C23.222 17.7236 23.2178 17.7262 23.2144 17.7296C23.211 17.733 23.2084 17.7372 23.2069 17.7418C23.2054 17.7464 23.2049 17.7513 23.2056 17.7561ZM23.2056 19.9292V21.6226C23.2049 21.6274 23.2054 21.6323 23.2069 21.6369C23.2084 21.6415 23.211 21.6457 23.2144 21.6491C23.2178 21.6525 23.222 21.6551 23.2266 21.6566C23.2312 21.6581 23.2361 21.6586 23.2409 21.6579H24.1299C24.4027 21.6776 24.673 21.5945 24.8877 21.425C25.0534 21.2495 25.1457 21.0173 25.1457 20.7759C25.1457 20.5345 25.0534 20.3023 24.8877 20.1268C24.6726 19.9583 24.4024 19.8762 24.1299 19.8968H23.2409C23.2364 19.8962 23.2318 19.8965 23.2274 19.8979C23.223 19.8993 23.219 19.9016 23.2156 19.9047C23.2123 19.9078 23.2096 19.9116 23.2079 19.9158C23.2062 19.9201 23.2054 19.9247 23.2056 19.9292Z" fill="#121019"/>
<path id="Vector_35" d="M27.2231 22.0252C26.9722 21.8859 26.7672 21.6765 26.6332 21.4227C26.4959 21.1432 26.4244 20.8359 26.4244 20.5245C26.4244 20.2131 26.4959 19.9058 26.6332 19.6263C26.7633 19.3765 26.9614 19.1686 27.2047 19.0266C27.4526 18.8878 27.732 18.8149 28.0161 18.8149C28.3002 18.8149 28.5796 18.8878 28.8275 19.0266C29.0659 19.165 29.2613 19.3667 29.3919 19.6094C29.5314 19.8655 29.6024 20.1532 29.598 20.4448C29.5989 20.499 29.5961 20.5532 29.5895 20.6071C29.5874 20.6239 29.5789 20.6393 29.5658 20.6501C29.5526 20.6608 29.5359 20.6661 29.5189 20.6649H27.0298C26.9733 20.6649 26.9521 20.6946 26.9648 20.7552C26.989 21.0376 27.116 21.3012 27.3219 21.4961C27.5315 21.6834 27.8057 21.7821 28.0867 21.7712C28.2608 21.7717 28.4331 21.7356 28.5924 21.665C28.7516 21.5945 28.8943 21.4913 29.0109 21.362C29.0632 21.3098 29.1041 21.3013 29.1309 21.3338L29.3651 21.5878C29.3727 21.5928 29.3789 21.5996 29.3832 21.6076C29.3875 21.6156 29.3898 21.6246 29.3898 21.6336C29.3898 21.6427 29.3875 21.6517 29.3832 21.6597C29.3789 21.6677 29.3727 21.6745 29.3651 21.6795C29.2004 21.8548 29.0022 21.9954 28.7824 22.093C28.5629 22.1881 28.3259 22.2362 28.0867 22.2341C27.7856 22.2405 27.488 22.1685 27.2231 22.0252ZM29.0476 20.1696C29.0102 19.9203 28.8863 19.692 28.6977 19.5247C28.5055 19.3647 28.2634 19.2771 28.0133 19.2771C27.7632 19.2771 27.5211 19.3647 27.3289 19.5247C27.137 19.6934 27.0131 19.9262 26.9804 20.1795V20.2148C26.9804 20.243 27.0029 20.2571 27.0509 20.2571H28.9841C29.0406 20.2552 29.0618 20.2261 29.0476 20.1696Z" fill="#121019"/>
<path id="Vector_36" d="M31.9331 18.8213C31.974 18.8213 31.9952 18.8453 31.9952 18.8919V19.2658C31.9952 19.3082 31.9796 19.3293 31.9458 19.3293C31.9116 19.3296 31.8775 19.3258 31.8442 19.318C31.8129 19.3124 31.7813 19.3091 31.7496 19.3082C31.5951 19.3043 31.4422 19.3407 31.3059 19.4136C31.1696 19.4866 31.0546 19.5937 30.9721 19.7244C30.938 19.7768 30.9208 19.8384 30.9227 19.9008V22.088C30.9241 22.0976 30.9233 22.1074 30.9203 22.1166C30.9172 22.1259 30.9121 22.1342 30.9052 22.1411C30.8983 22.148 30.89 22.1531 30.8808 22.1562C30.8715 22.1592 30.8617 22.16 30.8522 22.1586H30.4796C30.47 22.16 30.4602 22.1592 30.451 22.1562C30.4418 22.1531 30.4334 22.148 30.4266 22.1411C30.4197 22.1342 30.4146 22.1259 30.4115 22.1166C30.4085 22.1074 30.4076 22.0976 30.4091 22.088V18.9554C30.4076 18.9458 30.4085 18.936 30.4115 18.9268C30.4146 18.9176 30.4197 18.9092 30.4266 18.9023C30.4334 18.8955 30.4418 18.8903 30.451 18.8873C30.4602 18.8842 30.47 18.8834 30.4796 18.8848H30.8183C30.8279 18.8834 30.8377 18.8842 30.8469 18.8873C30.8561 18.8903 30.8645 18.8955 30.8713 18.9023C30.8782 18.9092 30.8833 18.9176 30.8864 18.9268C30.8894 18.936 30.8903 18.9458 30.8888 18.9554V19.2094C30.8888 19.2291 30.8888 19.2404 30.903 19.2447C30.9171 19.2489 30.9227 19.2447 30.9382 19.2305C31.0439 19.0972 31.179 18.9902 31.333 18.918C31.4871 18.8458 31.6557 18.8102 31.8258 18.8143C31.8617 18.8136 31.8976 18.816 31.9331 18.8213Z" fill="#121019"/>
<path id="Vector_37" d="M33.5278 21.7989V22.1164C33.5293 22.126 33.5284 22.1358 33.5254 22.145C33.5223 22.1542 33.5172 22.1626 33.5103 22.1694C33.5035 22.1763 33.4951 22.1814 33.4859 22.1845C33.4767 22.1875 33.4669 22.1883 33.4573 22.1869H33.3289C33.1441 22.1988 32.9614 22.1425 32.8152 22.0289C32.7503 21.9656 32.7002 21.8888 32.6685 21.8039C32.6367 21.719 32.6242 21.6281 32.6318 21.5378V17.121C32.6304 17.1114 32.6312 17.1016 32.6342 17.0924C32.6373 17.0832 32.6424 17.0748 32.6493 17.068C32.6562 17.0611 32.6645 17.056 32.6737 17.0529C32.683 17.0499 32.6927 17.0491 32.7023 17.0505H33.0763C33.0859 17.0491 33.0957 17.0499 33.1049 17.0529C33.1141 17.056 33.1225 17.0611 33.1293 17.068C33.1362 17.0748 33.1413 17.0832 33.1444 17.0924C33.1474 17.1016 33.1483 17.1114 33.1468 17.121V21.4743C33.1468 21.6436 33.2174 21.7283 33.3585 21.7283H33.4573C33.4669 21.7269 33.4767 21.7277 33.4859 21.7308C33.4951 21.7338 33.5035 21.739 33.5103 21.7458C33.5172 21.7527 33.5223 21.761 33.5254 21.7703C33.5284 21.7795 33.5293 21.7893 33.5278 21.7989Z" fill="#121019"/>
<path id="Vector_38" d="M34.3279 18.0064C34.2907 17.9718 34.2611 17.9298 34.241 17.8832C34.2208 17.8366 34.2105 17.7863 34.2108 17.7355C34.2105 17.6851 34.2208 17.6352 34.241 17.5891C34.2611 17.5429 34.2907 17.5014 34.3279 17.4674C34.3635 17.4314 34.4059 17.4028 34.4526 17.3834C34.4994 17.364 34.5496 17.3542 34.6002 17.3545C34.6491 17.3547 34.6975 17.3648 34.7423 17.3842C34.7872 17.4036 34.8277 17.4319 34.8613 17.4674C34.8971 17.5021 34.9255 17.5438 34.9447 17.5899C34.9638 17.636 34.9734 17.6856 34.9728 17.7355C34.9735 17.7858 34.9639 17.8358 34.9448 17.8824C34.9256 17.9289 34.8972 17.9711 34.8613 18.0064C34.8285 18.0432 34.7883 18.0727 34.7433 18.0929C34.6983 18.1131 34.6495 18.1235 34.6002 18.1236C34.5492 18.124 34.4986 18.1138 34.4517 18.0936C34.4049 18.0734 34.3627 18.0438 34.3279 18.0064ZM34.3279 22.0888V18.9561C34.3265 18.9465 34.3273 18.9367 34.3303 18.9275C34.3334 18.9183 34.3385 18.9099 34.3454 18.9031C34.3522 18.8962 34.3606 18.891 34.3698 18.888C34.379 18.885 34.3888 18.8841 34.3984 18.8856H34.7738C34.7834 18.8841 34.7932 18.885 34.8024 18.888C34.8116 18.891 34.82 18.8962 34.8268 18.9031C34.8337 18.9099 34.8389 18.9183 34.8419 18.9275C34.8449 18.9367 34.8458 18.9465 34.8443 18.9561V22.0888C34.8458 22.0984 34.8449 22.1082 34.8419 22.1174C34.8389 22.1266 34.8337 22.135 34.8268 22.1418C34.82 22.1487 34.8116 22.1538 34.8024 22.1569C34.7932 22.1599 34.7834 22.1608 34.7738 22.1593H34.3984C34.3891 22.1603 34.3796 22.1591 34.3707 22.1558C34.3619 22.1526 34.3539 22.1474 34.3474 22.1406C34.3408 22.1338 34.336 22.1256 34.3331 22.1166C34.3302 22.1076 34.3294 22.0981 34.3307 22.0888H34.3279Z" fill="#121019"/>
<path id="Vector_39" d="M36.3641 22.1549H35.9901C35.9805 22.1563 35.9707 22.1554 35.9615 22.1524C35.9523 22.1494 35.9439 22.1442 35.9371 22.1374C35.9302 22.1305 35.9251 22.1221 35.922 22.1129C35.919 22.1037 35.9181 22.0939 35.9196 22.0843V18.9516C35.9181 18.942 35.919 18.9322 35.922 18.923C35.9251 18.9138 35.9302 18.9055 35.9371 18.8986C35.9439 18.8917 35.9523 18.8866 35.9615 18.8835C35.9707 18.8805 35.9805 18.8797 35.9901 18.8811H36.3288C36.3384 18.8797 36.3482 18.8805 36.3574 18.8835C36.3666 18.8866 36.375 18.8917 36.3818 18.8986C36.3887 18.9055 36.3938 18.9138 36.3969 18.923C36.3999 18.9322 36.4008 18.942 36.3993 18.9516V19.1915C36.3993 19.2113 36.3993 19.2226 36.4163 19.2268C36.4332 19.231 36.4417 19.2268 36.4544 19.2056C36.5587 19.0831 36.6863 18.9824 36.8297 18.9093C36.9798 18.841 37.1433 18.8072 37.3081 18.8105C37.457 18.8015 37.6062 18.8239 37.746 18.8762C37.8857 18.9284 38.013 19.0094 38.1195 19.1139C38.2164 19.2179 38.2919 19.3399 38.3415 19.4731C38.3912 19.6063 38.414 19.748 38.4088 19.89V22.0843C38.4102 22.0939 38.4093 22.1037 38.4063 22.1129C38.4033 22.1221 38.3981 22.1305 38.3912 22.1374C38.3844 22.1442 38.376 22.1494 38.3668 22.1524C38.3576 22.1554 38.3478 22.1563 38.3382 22.1549H37.9657C37.9561 22.1563 37.9463 22.1554 37.9371 22.1524C37.9279 22.1494 37.9195 22.1442 37.9126 22.1374C37.9058 22.1305 37.9006 22.1221 37.8976 22.1129C37.8945 22.1037 37.8937 22.0939 37.8951 22.0843V19.9789C37.9018 19.884 37.8895 19.7887 37.859 19.6986C37.8285 19.6085 37.7803 19.5253 37.7173 19.454C37.6497 19.3909 37.5698 19.3423 37.4827 19.3112C37.3956 19.2802 37.303 19.2673 37.2107 19.2734C37.0611 19.2721 36.9141 19.3137 36.7874 19.3933C36.6552 19.4809 36.5467 19.5996 36.4713 19.739C36.4477 19.7849 36.4356 19.8357 36.436 19.8872V22.0885C36.4368 22.0979 36.4354 22.1074 36.432 22.1162C36.4285 22.125 36.4232 22.1329 36.4162 22.1393C36.4093 22.1456 36.401 22.1504 36.3919 22.1531C36.3829 22.1558 36.3734 22.1564 36.3641 22.1549Z" fill="#121019"/>
<path id="Vector_40" d="M10.5294 31.1135C10.2435 30.9145 10.0312 30.6268 9.92542 30.295V30.2668C9.92578 30.2523 9.93077 30.2383 9.93966 30.2269C9.94855 30.2155 9.96087 30.2072 9.9748 30.2033L10.3346 30.0622C10.3457 30.0572 10.3578 30.0548 10.3699 30.0551C10.3764 30.055 10.3829 30.0562 10.389 30.0586C10.395 30.0611 10.4005 30.0647 10.4052 30.0692C10.4142 30.0797 10.4213 30.0916 10.4264 30.1045C10.4902 30.3423 10.633 30.5513 10.8313 30.6972C11.0345 30.8406 11.2784 30.9148 11.527 30.9088C11.8075 30.927 12.0841 30.836 12.2989 30.6548C12.4685 30.483 12.5659 30.2527 12.5711 30.0113C12.5764 29.77 12.4891 29.5357 12.3271 29.3566C12.1419 29.1853 11.9102 29.0724 11.6611 29.0321L11.3012 28.9615C10.9597 28.9116 10.6439 28.751 10.4024 28.5043C10.1792 28.2594 10.0616 27.9365 10.075 27.6054C10.0732 27.3626 10.1392 27.1242 10.2655 26.9168C10.3928 26.7072 10.5741 26.5357 10.7904 26.4201C10.989 26.3075 11.2099 26.2397 11.4374 26.2214C11.665 26.203 11.8938 26.2346 12.1079 26.3139C12.322 26.3932 12.5162 26.5183 12.6769 26.6804C12.8376 26.8426 12.9609 27.0379 13.0383 27.2527C13.0416 27.2618 13.0416 27.2718 13.0383 27.2809C13.0377 27.2953 13.0327 27.3092 13.0238 27.3206C13.015 27.3319 13.0028 27.3403 12.9889 27.3444L12.622 27.4996C12.6104 27.502 12.5984 27.502 12.5868 27.4996C12.5802 27.4999 12.5737 27.4987 12.5676 27.4963C12.5615 27.4939 12.556 27.4902 12.5515 27.4855C12.5415 27.4757 12.5343 27.4636 12.5303 27.4502C12.4539 27.2413 12.3174 27.0597 12.138 26.9281C11.9673 26.8032 11.7611 26.7365 11.5496 26.7376C11.4258 26.7307 11.3018 26.7484 11.1849 26.7895C11.0679 26.8307 10.9602 26.8946 10.868 26.9775C10.7856 27.0565 10.7208 27.152 10.6778 27.2578C10.6347 27.3636 10.6145 27.4772 10.6183 27.5913C10.6108 27.7934 10.6815 27.9905 10.8158 28.1417C10.9731 28.301 11.1793 28.4028 11.4014 28.4309L11.7613 28.5015C12.1225 28.5663 12.4578 28.7327 12.7279 28.9813C12.8569 29.1072 12.9575 29.2592 13.0232 29.4271C13.0889 29.595 13.1181 29.7749 13.1089 29.9549C13.1121 30.2149 13.0448 30.471 12.9141 30.6958C12.7821 30.9196 12.5887 31.1008 12.3568 31.2179C12.0943 31.3495 11.8036 31.4149 11.5101 31.4084C11.1605 31.4142 10.8178 31.3111 10.5294 31.1135Z" fill="#121019"/>
<path id="Vector_41" d="M14.5795 31.1561C14.3293 31.0157 14.1249 30.8059 13.9911 30.5521C13.8532 30.273 13.7815 29.9659 13.7815 29.6547C13.7815 29.3434 13.8532 29.0363 13.9911 28.7572C14.1201 28.5089 14.3155 28.3013 14.5555 28.1575C14.8037 28.0187 15.0833 27.9458 15.3676 27.9458C15.6519 27.9458 15.9315 28.0187 16.1797 28.1575C16.4171 28.2965 16.6122 28.4975 16.7441 28.7388C16.8833 28.9955 16.9538 29.2837 16.9488 29.5756C16.9493 29.6298 16.9469 29.684 16.9417 29.7379C16.9387 29.7542 16.9299 29.7689 16.9169 29.7792C16.904 29.7896 16.8877 29.795 16.8711 29.7944H14.3932C14.3368 29.7944 14.3156 29.824 14.3297 29.8861C14.3527 30.1648 14.4755 30.4258 14.6755 30.6213C14.8847 30.811 15.1594 30.9122 15.4417 30.9035C15.6158 30.9035 15.788 30.8672 15.9471 30.7967C16.1063 30.7262 16.249 30.6232 16.366 30.4943C16.4168 30.4421 16.4577 30.4336 16.4859 30.466L16.7187 30.72C16.7512 30.7483 16.7512 30.7779 16.7187 30.8118C16.5542 30.9863 16.3566 31.1264 16.1374 31.2238C15.9181 31.3195 15.681 31.3676 15.4417 31.3649C15.1411 31.371 14.844 31.2991 14.5795 31.1561ZM16.4041 29.3005C16.3673 29.0505 16.2433 28.8216 16.0541 28.6542C15.8607 28.4959 15.6181 28.4101 15.3682 28.4116C15.1183 28.4132 14.8768 28.502 14.6853 28.6626C14.4952 28.8286 14.3715 29.0576 14.3368 29.3075V29.3428C14.3368 29.371 14.3608 29.3851 14.4074 29.3851H16.3406C16.397 29.3851 16.4182 29.3569 16.4041 29.3005Z" fill="#121019"/>
<path id="Vector_42" d="M18.2102 31.2906H17.8362C17.8267 31.292 17.8169 31.2912 17.8076 31.2881C17.7984 31.2851 17.7901 31.2799 17.7832 31.2731C17.7763 31.2662 17.7712 31.2578 17.7681 31.2486C17.7651 31.2394 17.7643 31.2296 17.7657 31.22V28.0817C17.7643 28.0721 17.7651 28.0623 17.7681 28.0531C17.7712 28.0439 17.7763 28.0355 17.7832 28.0287C17.7901 28.0218 17.7984 28.0167 17.8076 28.0136C17.8169 28.0106 17.8267 28.0097 17.8362 28.0112H18.1749C18.1845 28.0097 18.1943 28.0106 18.2035 28.0136C18.2127 28.0167 18.2211 28.0218 18.228 28.0287C18.2348 28.0355 18.24 28.0439 18.243 28.0531C18.2461 28.0623 18.2469 28.0721 18.2455 28.0817V28.3146C18.2445 28.3214 18.2456 28.3285 18.2486 28.3348C18.2516 28.341 18.2564 28.3463 18.2624 28.3498C18.2751 28.3498 18.2878 28.3498 18.3019 28.3287C18.4064 28.2105 18.5336 28.1145 18.6759 28.0464C18.8262 27.9774 18.9903 27.9436 19.1556 27.9477C19.3046 27.9389 19.4537 27.9613 19.5934 28.0135C19.7332 28.0658 19.8604 28.1467 19.967 28.2511C20.0639 28.355 20.1393 28.4771 20.1889 28.6103C20.2386 28.7435 20.2615 28.8851 20.2563 29.0272V31.2214C20.2577 31.231 20.2569 31.2408 20.2538 31.25C20.2508 31.2593 20.2456 31.2676 20.2388 31.2745C20.2319 31.2813 20.2236 31.2865 20.2143 31.2895C20.2051 31.2926 20.1953 31.2934 20.1857 31.292H19.8118C19.8022 31.2934 19.7924 31.2926 19.7832 31.2895C19.774 31.2865 19.7656 31.2813 19.7588 31.2745C19.7519 31.2676 19.7467 31.2593 19.7437 31.25C19.7407 31.2408 19.7398 31.231 19.7412 31.2214V29.1048C19.7546 28.9129 19.6911 28.7236 19.5649 28.5784C19.4968 28.5157 19.4166 28.4674 19.3293 28.4366C19.2419 28.4058 19.1493 28.3931 19.0569 28.3992C18.9071 28.3974 18.7601 28.4391 18.6335 28.5192C18.5003 28.6058 18.3911 28.7248 18.316 28.8649C18.2936 28.9086 18.2815 28.9569 18.2807 29.006V31.2073C18.2848 31.2177 18.2859 31.2291 18.2841 31.2401C18.2822 31.2511 18.2775 31.2614 18.2702 31.2699C18.263 31.2785 18.2536 31.2849 18.2431 31.2885C18.2325 31.2922 18.2211 31.2929 18.2102 31.2906Z" fill="#121019"/>
<path id="Vector_43" d="M21.8508 31.1443C21.6062 31.0004 21.4061 30.7919 21.2722 30.5417C21.1333 30.266 21.0609 29.9615 21.0609 29.6527C21.0609 29.344 21.1333 29.0395 21.2722 28.7637C21.4057 28.5133 21.606 28.3047 21.8508 28.1612C22.099 28.0163 22.3819 27.9416 22.6692 27.9453C22.8683 27.9332 23.0675 27.9663 23.252 28.0421C23.4365 28.1178 23.6015 28.2343 23.7346 28.3827C23.738 28.3867 23.7426 28.3894 23.7476 28.3907C23.7527 28.392 23.758 28.3916 23.7628 28.3898C23.7727 28.3898 23.777 28.3757 23.777 28.3616V28.0793C23.7755 28.0698 23.7764 28.06 23.7794 28.0507C23.7825 28.0415 23.7876 28.0332 23.7945 28.0263C23.8013 28.0194 23.8097 28.0143 23.8189 28.0112C23.8281 28.0082 23.8379 28.0074 23.8475 28.0088H24.1932C24.2028 28.0074 24.2126 28.0082 24.2218 28.0112C24.2311 28.0143 24.2394 28.0194 24.2463 28.0263C24.2531 28.0332 24.2583 28.0415 24.2613 28.0507C24.2644 28.06 24.2652 28.0698 24.2638 28.0793V31.212C24.2652 31.2216 24.2644 31.2314 24.2613 31.2406C24.2583 31.2498 24.2531 31.2582 24.2463 31.2651C24.2394 31.2719 24.2311 31.2771 24.2218 31.2801C24.2126 31.2832 24.2028 31.284 24.1932 31.2826H23.8475C23.8379 31.284 23.8281 31.2832 23.8189 31.2801C23.8097 31.2771 23.8013 31.2719 23.7945 31.2651C23.7876 31.2582 23.7825 31.2498 23.7794 31.2406C23.7764 31.2314 23.7755 31.2216 23.777 31.212V30.9298C23.777 30.9157 23.777 30.9058 23.7628 30.9016C23.7588 30.8984 23.7539 30.8966 23.7487 30.8966C23.7436 30.8966 23.7386 30.8984 23.7346 30.9016C23.5963 31.0434 23.4304 31.1553 23.2472 31.2305C23.064 31.3058 22.8673 31.3427 22.6692 31.339C22.3839 31.3491 22.1011 31.2818 21.8508 31.1443ZM23.3395 30.7534C23.503 30.669 23.6361 30.5359 23.7205 30.3724C23.7397 30.3328 23.7493 30.2894 23.7487 30.2454V29.0601C23.7493 29.0161 23.7397 28.9726 23.7205 28.9331C23.6293 28.7709 23.493 28.6385 23.3282 28.5521C23.1497 28.456 22.9495 28.4074 22.7468 28.411C22.5894 28.404 22.4323 28.431 22.2862 28.4902C22.1401 28.5493 22.0084 28.6393 21.9002 28.7539C21.6912 29.0068 21.5768 29.3246 21.5768 29.6527C21.5768 29.9808 21.6912 30.2987 21.9002 30.5516C22.0084 30.6662 22.1401 30.7561 22.2862 30.8153C22.4323 30.8745 22.5894 30.9015 22.7468 30.8945C22.9531 30.8974 23.1567 30.8489 23.3395 30.7534Z" fill="#121019"/>
<path id="Vector_44" d="M25.5551 26.7397L25.9361 26.5351C25.9477 26.5326 25.9597 26.5326 25.9713 26.5351C26.0038 26.5351 26.0207 26.5535 26.0207 26.5916V27.9886C26.02 27.9934 26.0204 27.9983 26.022 28.0029C26.0235 28.0075 26.0261 28.0117 26.0295 28.0151C26.0329 28.0185 26.0371 28.0211 26.0417 28.0226C26.0463 28.0241 26.0512 28.0246 26.056 28.0238H26.4441C26.4537 28.0224 26.4635 28.0233 26.4727 28.0263C26.4819 28.0293 26.4902 28.0345 26.4971 28.0414C26.504 28.0482 26.5091 28.0566 26.5122 28.0658C26.5152 28.075 26.516 28.0848 26.5146 28.0944V28.3978C26.516 28.4074 26.5152 28.4172 26.5122 28.4264C26.5091 28.4356 26.504 28.444 26.4971 28.4508C26.4902 28.4577 26.4819 28.4629 26.4727 28.4659C26.4635 28.4689 26.4537 28.4698 26.4441 28.4683H26.056C26.0512 28.4676 26.0463 28.4681 26.0417 28.4696C26.0371 28.4711 26.0329 28.4737 26.0295 28.4771C26.0261 28.4805 26.0235 28.4847 26.022 28.4893C26.0204 28.4939 26.02 28.4988 26.0207 28.5036V31.2271C26.0222 31.2367 26.0213 31.2465 26.0183 31.2557C26.0152 31.2649 26.0101 31.2733 26.0032 31.2801C25.9964 31.287 25.988 31.2921 25.9788 31.2952C25.9696 31.2982 25.9598 31.299 25.9502 31.2976H25.5762C25.5666 31.299 25.5568 31.2982 25.5476 31.2952C25.5384 31.2921 25.53 31.287 25.5232 31.2801C25.5163 31.2733 25.5112 31.2649 25.5081 31.2557C25.5051 31.2465 25.5042 31.2367 25.5057 31.2271V28.5036C25.5064 28.4988 25.506 28.4939 25.5044 28.4893C25.5029 28.4847 25.5003 28.4805 25.4969 28.4771C25.4935 28.4737 25.4893 28.4711 25.4847 28.4696C25.4801 28.4681 25.4752 28.4676 25.4704 28.4683H25.0823C25.0727 28.4698 25.0629 28.4689 25.0537 28.4659C25.0445 28.4629 25.0362 28.4577 25.0293 28.4508C25.0224 28.444 25.0173 28.4356 25.0142 28.4264C25.0112 28.4172 25.0104 28.4074 25.0118 28.3978V28.0817C25.0104 28.0721 25.0112 28.0623 25.0142 28.0531C25.0173 28.0439 25.0224 28.0355 25.0293 28.0287C25.0362 28.0218 25.0445 28.0166 25.0537 28.0136C25.0629 28.0106 25.0727 28.0097 25.0823 28.0111H25.4704C25.4752 28.0119 25.4801 28.0114 25.4847 28.0099C25.4893 28.0084 25.4935 28.0058 25.4969 28.0024C25.5003 27.999 25.5029 27.9948 25.5044 27.9902C25.506 27.9856 25.5064 27.9807 25.5057 27.9759V26.8188C25.5049 26.8021 25.5092 26.7857 25.518 26.7715C25.5268 26.7574 25.5398 26.7463 25.5551 26.7397Z" fill="#121019"/>
<path id="Vector_45" d="M27.3995 31.1558C27.2097 31.0152 27.0702 30.8173 27.0015 30.5913V30.5631C27.0014 30.5493 27.0064 30.5359 27.0155 30.5255C27.0246 30.5151 27.0372 30.5084 27.0509 30.5067L27.3896 30.3867L27.4178 30.3797C27.446 30.3797 27.4672 30.398 27.4813 30.4361C27.5182 30.5786 27.6041 30.7035 27.724 30.7889C27.8359 30.8707 27.9707 30.9151 28.1092 30.9159C28.2723 30.9286 28.434 30.8781 28.5608 30.7748C28.6117 30.7279 28.6518 30.6706 28.6786 30.6068C28.7054 30.543 28.7182 30.4742 28.716 30.4051C28.7195 30.3385 28.7075 30.272 28.6811 30.2108C28.6546 30.1497 28.6145 30.0954 28.5636 30.0523C28.4404 29.9575 28.2944 29.8967 28.1403 29.8759L27.8581 29.8194C27.636 29.7827 27.4338 29.6694 27.2866 29.4991C27.1449 29.3303 27.0696 29.1155 27.0749 28.8952C27.0752 28.7251 27.1242 28.5586 27.216 28.4154C27.3071 28.2681 27.4376 28.1493 27.5928 28.0725C27.763 27.9888 27.9506 27.9467 28.1403 27.9497C28.376 27.9425 28.6075 28.0129 28.7993 28.1501C28.9872 28.2933 29.1207 28.4965 29.1775 28.7258L29.1845 28.7541C29.1845 28.7823 29.1662 28.8035 29.1281 28.8176L28.7965 28.9022L28.7682 28.9093C28.74 28.9093 28.7203 28.8909 28.7118 28.8528C28.6814 28.7237 28.6107 28.6076 28.51 28.5212C28.4053 28.438 28.274 28.3954 28.1403 28.4013C27.995 28.3941 27.8524 28.4419 27.7409 28.5353C27.6917 28.5766 27.6526 28.6286 27.6264 28.6873C27.6002 28.7459 27.5878 28.8098 27.59 28.874C27.586 28.9335 27.5946 28.9932 27.6153 29.0491C27.6359 29.105 27.6682 29.156 27.7099 29.1986C27.813 29.2841 27.9374 29.3401 28.0697 29.3608L28.352 29.4173C28.5934 29.4575 28.8163 29.5719 28.9898 29.7447C29.0723 29.833 29.1364 29.9369 29.1783 30.0503C29.2202 30.1637 29.2391 30.2843 29.2339 30.4051C29.2377 30.5357 29.2127 30.6656 29.1607 30.7856C29.1088 30.9055 29.0312 31.0126 28.9333 31.0993C28.7067 31.2908 28.4154 31.3882 28.1191 31.3717C27.8618 31.3825 27.6083 31.3065 27.3995 31.1558Z" fill="#121019"/>
<path id="Vector_46" d="M31.8488 31.2263L31.0092 29.8152C30.9993 29.7912 30.9866 29.7785 30.9697 29.7757C30.9604 29.7755 30.9512 29.7778 30.943 29.7822C30.9349 29.7867 30.928 29.7932 30.9231 29.8011L30.6282 30.1539C30.6003 30.1903 30.5854 30.235 30.5859 30.2809V31.2193C30.5858 31.2285 30.5839 31.2376 30.5803 31.2461C30.5766 31.2546 30.5713 31.2623 30.5647 31.2687C30.5572 31.2758 30.5483 31.2813 30.5386 31.285C30.5289 31.2886 30.5186 31.2902 30.5082 31.2898H30.1414C30.1318 31.2913 30.122 31.2904 30.1128 31.2874C30.1035 31.2843 30.0952 31.2792 30.0883 31.2723C30.0815 31.2655 30.0763 31.2571 30.0733 31.2479C30.0702 31.2387 30.0694 31.2289 30.0708 31.2193V26.2465C30.0694 26.2369 30.0702 26.2271 30.0733 26.2179C30.0763 26.2087 30.0815 26.2003 30.0883 26.1935C30.0952 26.1866 30.1035 26.1815 30.1128 26.1784C30.122 26.1754 30.1318 26.1745 30.1414 26.176H30.5082C30.5186 26.1756 30.5289 26.1772 30.5386 26.1808C30.5483 26.1845 30.5572 26.19 30.5647 26.1971C30.5713 26.2035 30.5766 26.2112 30.5803 26.2197C30.5839 26.2282 30.5858 26.2373 30.5859 26.2465V29.3721C30.5859 29.4004 30.5859 29.4159 30.607 29.4187C30.6282 29.4215 30.6367 29.4088 30.6564 29.3862L31.7571 28.0527C31.7669 28.0395 31.7796 28.0288 31.7943 28.0214C31.8091 28.0141 31.8253 28.0103 31.8417 28.0104H32.3286C32.3397 28.0093 32.3509 28.0114 32.3609 28.0164C32.3709 28.0214 32.3792 28.0291 32.385 28.0386C32.3889 28.0495 32.3897 28.0612 32.3872 28.0724C32.3847 28.0837 32.379 28.094 32.3709 28.1021L31.3831 29.2875C31.3675 29.3047 31.3563 29.3255 31.3507 29.3481C31.3492 29.3695 31.3558 29.3906 31.369 29.4074L32.4344 31.1995C32.4423 31.2123 32.4472 31.2268 32.4485 31.2418C32.4485 31.2701 32.4259 31.2842 32.385 31.2842H31.9546C31.9333 31.2855 31.9121 31.2808 31.8933 31.2706C31.8746 31.2603 31.8592 31.245 31.8488 31.2263Z" fill="#121019"/>
<path id="Vector_47" d="M33.6126 31.1445C33.3677 31.0011 33.1674 30.7925 33.034 30.542C32.8951 30.2662 32.8227 29.9617 32.8227 29.653C32.8227 29.3442 32.8951 29.0397 33.034 28.764C33.1671 28.5132 33.3674 28.3045 33.6126 28.1614C33.8601 28.0144 34.1431 27.9378 34.431 27.9399C34.6301 27.9279 34.8293 27.9611 35.0137 28.0368C35.1982 28.1125 35.3632 28.2289 35.4964 28.3773C35.4997 28.3814 35.5042 28.3843 35.5093 28.3856C35.5144 28.3869 35.5198 28.3865 35.5246 28.3844C35.5294 28.3815 35.5333 28.3773 35.5358 28.3723C35.5382 28.3673 35.5393 28.3617 35.5387 28.3562V28.0739C35.5373 28.0643 35.5381 28.0545 35.5412 28.0453C35.5442 28.0361 35.5494 28.0278 35.5562 28.0209C35.5631 28.014 35.5715 28.0089 35.5807 28.0058C35.5899 28.0028 35.5997 28.002 35.6093 28.0034H35.955C35.9646 28.002 35.9744 28.0028 35.9836 28.0058C35.9928 28.0089 36.0012 28.014 36.0081 28.0209C36.0149 28.0278 36.0201 28.0361 36.0231 28.0453C36.0262 28.0545 36.027 28.0643 36.0256 28.0739V31.2066C36.027 31.2162 36.0262 31.226 36.0231 31.2352C36.0201 31.2444 36.0149 31.2528 36.0081 31.2596C36.0012 31.2665 35.9928 31.2717 35.9836 31.2747C35.9744 31.2777 35.9646 31.2786 35.955 31.2772H35.6093C35.5997 31.2786 35.5899 31.2777 35.5807 31.2747C35.5715 31.2717 35.5631 31.2665 35.5562 31.2596C35.5494 31.2528 35.5442 31.2444 35.5412 31.2352C35.5381 31.226 35.5373 31.2162 35.5387 31.2066V30.9244C35.5393 30.9188 35.5382 30.9132 35.5358 30.9082C35.5333 30.9032 35.5294 30.8991 35.5246 30.8962C35.5206 30.8929 35.5156 30.8912 35.5105 30.8912C35.5054 30.8912 35.5004 30.8929 35.4964 30.8962C35.3581 31.0379 35.1922 31.1499 35.009 31.2251C34.8258 31.3004 34.6291 31.3373 34.431 31.3336C34.1461 31.3456 33.8633 31.2802 33.6126 31.1445ZM35.1013 30.7536C35.2648 30.6693 35.3979 30.5361 35.4823 30.3726C35.5015 30.3331 35.5111 30.2896 35.5105 30.2456V29.0603C35.5111 29.0164 35.5015 28.9729 35.4823 28.9333C35.3907 28.7714 35.2545 28.6392 35.09 28.5523C34.9115 28.4563 34.7113 28.4077 34.5086 28.4112C34.3512 28.4045 34.1942 28.4316 34.0481 28.4908C33.902 28.5499 33.7704 28.6397 33.662 28.7541C33.4547 29.0078 33.3415 29.3254 33.3415 29.653C33.3415 29.9806 33.4547 30.2981 33.662 30.5518C33.7704 30.6662 33.902 30.756 34.0481 30.8151C34.1942 30.8743 34.3512 30.9014 34.5086 30.8947C34.7149 30.8978 34.9186 30.8493 35.1013 30.7536Z" fill="#121019"/>
<path id="Vector_48" d="M37.5497 31.2901H37.1757C37.1661 31.2915 37.1563 31.2907 37.1471 31.2876C37.1379 31.2846 37.1295 31.2794 37.1227 31.2726C37.1158 31.2657 37.1107 31.2574 37.1076 31.2481C37.1046 31.2389 37.1037 31.2291 37.1052 31.2195V28.0812C37.1037 28.0716 37.1046 28.0618 37.1076 28.0526C37.1107 28.0434 37.1158 28.035 37.1227 28.0282C37.1295 28.0213 37.1379 28.0162 37.1471 28.0131C37.1563 28.0101 37.1661 28.0092 37.1757 28.0107H37.5144C37.524 28.0092 37.5338 28.0101 37.543 28.0131C37.5522 28.0162 37.5606 28.0213 37.5674 28.0282C37.5743 28.035 37.5795 28.0434 37.5825 28.0526C37.5855 28.0618 37.5864 28.0716 37.5849 28.0812V28.3141C37.584 28.321 37.5851 28.328 37.5881 28.3343C37.5911 28.3405 37.5959 28.3458 37.6019 28.3493C37.6132 28.3493 37.6273 28.3493 37.6414 28.3282C37.7459 28.21 37.873 28.114 38.0153 28.046C38.1656 27.9768 38.3297 27.943 38.4951 27.9472C38.6408 27.9354 38.7874 27.955 38.9248 28.0048C39.0623 28.0546 39.1875 28.1333 39.2918 28.2357C39.3962 28.3381 39.4774 28.4617 39.5298 28.5981C39.5822 28.7346 39.6047 28.8808 39.5958 29.0267V31.2209C39.5972 31.2305 39.5964 31.2403 39.5933 31.2496C39.5903 31.2588 39.5851 31.2671 39.5783 31.274C39.5714 31.2809 39.563 31.286 39.5538 31.2891C39.5446 31.2921 39.5348 31.2929 39.5252 31.2915H39.1513C39.1417 31.2929 39.1319 31.2921 39.1227 31.2891C39.1135 31.286 39.1051 31.2809 39.0982 31.274C39.0914 31.2671 39.0862 31.2588 39.0832 31.2496C39.0801 31.2403 39.0793 31.2305 39.0807 31.2209V29.1043C39.094 28.9124 39.0306 28.7231 38.9043 28.5779C38.8364 28.5149 38.7563 28.4665 38.6689 28.4357C38.5815 28.4048 38.4888 28.3923 38.3963 28.3987C38.2466 28.397 38.0996 28.4386 37.973 28.5187C37.8397 28.6053 37.7305 28.7243 37.6555 28.8644C37.633 28.9081 37.621 28.9564 37.6202 29.0055V31.2068C37.6243 31.2173 37.6254 31.2286 37.6236 31.2396C37.6217 31.2506 37.6169 31.2609 37.6097 31.2695C37.6025 31.278 37.5931 31.2844 37.5825 31.288C37.572 31.2917 37.5606 31.2924 37.5497 31.2901Z" fill="#121019"/>
<path id="Vector_49" d="M41.1621 30.8454H42.8625C42.9091 30.8454 42.933 30.8708 42.933 30.923V31.2193C42.9345 31.2289 42.9336 31.2387 42.9306 31.2479C42.9276 31.2571 42.9224 31.2655 42.9155 31.2724C42.9087 31.2792 42.9003 31.2844 42.8911 31.2874C42.8819 31.2904 42.8721 31.2913 42.8625 31.2899H40.4283C40.3719 31.2899 40.3437 31.2659 40.3437 31.2193C40.3426 31.1941 40.3501 31.1692 40.3648 31.1487L42.0511 28.5043C42.0638 28.4761 42.0582 28.462 42.0299 28.462H40.4213C40.4117 28.4634 40.4019 28.4626 40.3927 28.4595C40.3835 28.4565 40.3751 28.4513 40.3682 28.4445C40.3614 28.4376 40.3562 28.4293 40.3532 28.42C40.3501 28.4108 40.3493 28.401 40.3507 28.3914V28.081C40.3493 28.0714 40.3501 28.0616 40.3532 28.0524C40.3562 28.0432 40.3614 28.0348 40.3682 28.0279C40.3751 28.0211 40.3835 28.0159 40.3927 28.0129C40.4019 28.0099 40.4117 28.009 40.4213 28.0104H42.7637C42.8159 28.0104 42.8413 28.033 42.8413 28.081C42.8408 28.1062 42.833 28.1307 42.8187 28.1516L41.1339 30.803C41.1198 30.8312 41.1282 30.8454 41.1621 30.8454Z" fill="#121019"/>
<path id="Vector_50" d="M44.5488 30.93V31.2475C44.5502 31.2571 44.5494 31.2669 44.5463 31.2761C44.5433 31.2853 44.5381 31.2937 44.5313 31.3005C44.5244 31.3074 44.516 31.3126 44.5068 31.3156C44.4976 31.3186 44.4878 31.3195 44.4782 31.3181H44.3512C44.1658 31.3294 43.9827 31.2727 43.8362 31.1586C43.7713 31.0956 43.7211 31.0191 43.6894 30.9344C43.6577 30.8497 43.6452 30.759 43.6527 30.6689V26.2465C43.6513 26.2369 43.6521 26.2271 43.6552 26.2179C43.6582 26.2087 43.6634 26.2003 43.6702 26.1935C43.6771 26.1866 43.6855 26.1815 43.6947 26.1784C43.7039 26.1754 43.7137 26.1745 43.7233 26.176H44.0972C44.1068 26.1745 44.1166 26.1754 44.1258 26.1784C44.135 26.1815 44.1434 26.1866 44.1503 26.1935C44.1571 26.2003 44.1623 26.2087 44.1653 26.2179C44.1684 26.2271 44.1692 26.2369 44.1678 26.2465V30.5998C44.1678 30.7691 44.2383 30.8538 44.3794 30.8538H44.4782C44.4884 30.8521 44.4988 30.8529 44.5085 30.8563C44.5183 30.8596 44.5271 30.8653 44.5341 30.8728C44.5411 30.8804 44.5461 30.8896 44.5486 30.8996C44.5512 30.9095 44.5513 30.92 44.5488 30.93Z" fill="#121019"/>
<path id="Vector_51" d="M45.8611 31.1562C45.6108 31.0158 45.4065 30.8061 45.2726 30.5523C45.1348 30.2732 45.063 29.9661 45.063 29.6548C45.063 29.3435 45.1348 29.0364 45.2726 28.7573C45.4027 28.5075 45.6008 28.2996 45.8441 28.1576C46.092 28.015 46.3738 27.9419 46.6597 27.946C46.9429 27.9427 47.2218 28.0158 47.4669 28.1576C47.7045 28.2964 47.8996 28.4974 48.0313 28.739C48.1693 28.9961 48.2392 29.2841 48.2345 29.5758C48.2373 29.6299 48.2373 29.684 48.2345 29.7381C48.2315 29.7544 48.2227 29.769 48.2098 29.7794C48.1968 29.7898 48.1806 29.7951 48.164 29.7945H45.6635C45.6057 29.7945 45.5845 29.8241 45.6 29.8862C45.6236 30.1684 45.7502 30.4321 45.9556 30.6271C46.1648 30.8168 46.4395 30.918 46.7218 30.9093C46.8959 30.9094 47.0681 30.873 47.2273 30.8025C47.3865 30.732 47.5291 30.629 47.6461 30.5001C47.6969 30.4479 47.7378 30.4394 47.7661 30.4718L47.9989 30.7258C48.0313 30.7541 48.0313 30.7837 47.9989 30.8176C47.8341 30.9925 47.6359 31.1326 47.4161 31.2296C47.1972 31.3251 46.9606 31.3732 46.7218 31.3707C46.4212 31.3747 46.1247 31.3008 45.8611 31.1562ZM47.6842 29.3006C47.6479 29.0508 47.5245 28.8219 47.3357 28.6543C47.1423 28.496 46.8997 28.4103 46.6498 28.4118C46.3998 28.4133 46.1583 28.5021 45.9669 28.6628C45.7763 28.8283 45.6524 29.0575 45.6184 29.3077L45.6099 29.343C45.6099 29.3712 45.6339 29.3853 45.6804 29.3853H47.6221C47.6743 29.3853 47.6955 29.3514 47.68 29.3006H47.6842Z" fill="#121019"/>
<path id="Vector_52" d="M49.0389 27.1373C49.002 27.1025 48.9725 27.0605 48.9524 27.0139C48.9323 26.9673 48.9219 26.9171 48.9218 26.8664C48.9216 26.816 48.9319 26.7661 48.952 26.7199C48.9722 26.6737 49.0018 26.6323 49.0389 26.5982C49.0745 26.5622 49.1169 26.5337 49.1637 26.5143C49.2105 26.4949 49.2607 26.4851 49.3113 26.4854C49.3602 26.4855 49.4085 26.4956 49.4534 26.515C49.4983 26.5344 49.5387 26.5627 49.5723 26.5982C49.6082 26.633 49.6366 26.6747 49.6557 26.7208C49.6749 26.7669 49.6845 26.8164 49.6838 26.8664C49.6842 26.9167 49.6745 26.9665 49.6554 27.0131C49.6362 27.0596 49.608 27.1018 49.5723 27.1373C49.5393 27.1738 49.499 27.2031 49.4541 27.2233C49.4092 27.2434 49.3605 27.254 49.3113 27.2544C49.2603 27.2546 49.2098 27.2443 49.163 27.2241C49.1161 27.204 49.0739 27.1744 49.0389 27.1373ZM49.0389 31.2196V28.0813C49.0389 28.0333 49.0615 28.0108 49.1081 28.0108H49.4834C49.493 28.0093 49.5028 28.0102 49.512 28.0132C49.5213 28.0163 49.5296 28.0214 49.5365 28.0283C49.5433 28.0351 49.5485 28.0435 49.5515 28.0527C49.5546 28.0619 49.5554 28.0717 49.554 28.0813V31.214C49.5554 31.2236 49.5546 31.2334 49.5515 31.2426C49.5485 31.2518 49.5433 31.2602 49.5365 31.267C49.5296 31.2739 49.5213 31.279 49.512 31.2821C49.5028 31.2851 49.493 31.286 49.4834 31.2845H49.1067C49.0982 31.2847 49.0897 31.2832 49.0818 31.28C49.0739 31.2768 49.0668 31.272 49.0608 31.2659C49.0549 31.2598 49.0502 31.2525 49.0472 31.2446C49.0442 31.2366 49.0428 31.2281 49.0432 31.2196H49.0389Z" fill="#121019"/>
</g>
<defs>
<clipPath id="clip0_3524_9330">
<rect width="240" height="40" fill="white"/>
</clipPath>
</defs>
</svg>
