<svg width="324" height="40" viewBox="0 0 324 40" fill="none" xmlns="http://www.w3.org/2000/svg">
<g clip-path="url(#clip0_3524_9301)">
<path d="M323.682 0.0141602H-0.000183105V40.0142H323.682V0.0141602Z" fill="white"/>
<path d="M264.606 26.6386H266.469C266.596 26.6386 266.695 26.5398 266.695 26.4128V17.6227C266.695 17.5098 266.765 17.4675 266.822 17.5804L271.845 26.4834C271.901 26.5821 272.014 26.6386 272.127 26.6386H274.271C274.398 26.6386 274.497 26.5398 274.497 26.4128V13.5451C274.497 13.4181 274.398 13.3193 274.271 13.3193H272.409C272.282 13.3193 272.183 13.4181 272.183 13.5451V22.3493C272.183 22.4622 272.113 22.5045 272.056 22.3916L267.033 13.4745C266.977 13.3758 266.864 13.3193 266.751 13.3193H264.606C264.479 13.3193 264.381 13.4181 264.381 13.5451V26.4128C264.381 26.5398 264.465 26.6386 264.606 26.6386Z" fill="#E40422"/>
<path d="M225.834 26.6386H232.762C232.889 26.6386 232.987 26.5398 232.987 26.4128V24.6633C232.987 24.5363 232.889 24.4375 232.762 24.4375H228.035C227.965 24.4375 227.922 24.3811 227.922 24.3246V21.1218C227.922 21.0513 227.979 21.0089 228.035 21.0089H232.762C232.889 21.0089 232.987 20.9102 232.987 20.7832V19.0477C232.987 18.9207 232.889 18.822 232.762 18.822H228.035C227.965 18.822 227.922 18.7797 227.922 18.7091V15.6474C227.922 15.5768 227.979 15.5345 228.035 15.5345H232.762C232.889 15.5345 232.987 15.4357 232.987 15.3088V13.5451C232.987 13.4181 232.889 13.3193 232.762 13.3193H225.834C225.707 13.3193 225.608 13.4181 225.608 13.5451V26.4128C225.608 26.5398 225.707 26.6386 225.834 26.6386Z" fill="#E40422"/>
<path d="M236.684 26.6386H238.575C238.702 26.6386 238.8 26.5398 238.8 26.4129V22.8714C238.8 22.8009 238.857 22.7585 238.913 22.7585H240.367C240.423 22.7585 240.479 22.8009 240.522 22.8291L243.076 26.4834C243.132 26.5822 243.231 26.6386 243.344 26.6386H245.742C245.926 26.6386 245.996 26.5116 245.869 26.3564L243.019 22.4905C242.977 22.434 242.977 22.3635 243.061 22.3211C244.755 21.6298 245.883 20.1342 245.883 18.046C245.883 15.0831 243.64 13.3335 240.776 13.3335H236.698C236.571 13.3335 236.472 13.4323 236.472 13.5592V26.427C236.458 26.5398 236.557 26.6386 236.684 26.6386ZM238.8 15.6333C238.8 15.5628 238.843 15.5204 238.913 15.5204H240.649C242.187 15.5204 243.428 16.3388 243.428 18.0319C243.428 19.725 242.187 20.5434 240.635 20.5434H238.913C238.843 20.5434 238.8 20.4869 238.8 20.4305V15.6333Z" fill="#E40422"/>
<path d="M213.926 26.6386H218.441C221.107 26.6386 222.518 25.016 222.518 22.8855C222.518 21.5028 221.855 20.4446 220.741 19.8661C220.67 19.8096 220.67 19.7532 220.741 19.7109C221.7 19.1042 222.264 18.1447 222.264 16.9172C222.264 14.8855 220.853 13.3193 218.271 13.3193H213.926C213.799 13.3193 213.7 13.4181 213.7 13.5451V26.4128C213.7 26.5398 213.785 26.6386 213.926 26.6386ZM216.014 15.6333C216.014 15.5627 216.056 15.5204 216.127 15.5204H217.961C219.16 15.5204 219.823 16.1694 219.823 17.1571C219.823 18.1447 219.16 18.8079 217.961 18.8079H216.127C216.056 18.8079 216.014 18.7655 216.014 18.695V15.6333ZM216.014 21.1218C216.014 21.0513 216.056 21.0089 216.127 21.0089H218.144C219.386 21.0089 220.063 21.7144 220.063 22.7162C220.063 23.7461 219.372 24.4234 218.144 24.4234H216.127C216.056 24.4234 216.014 24.367 216.014 24.3105V21.1218Z" fill="#E40422"/>
<path d="M258.751 26.6386H260.642C260.769 26.6386 260.868 26.5398 260.868 26.4128V13.5451C260.868 13.4181 260.769 13.3193 260.642 13.3193H258.751C258.624 13.3193 258.525 13.4181 258.525 13.5451V26.4128C258.525 26.5398 258.61 26.6386 258.751 26.6386Z" fill="#E40422"/>
<path d="M249.114 26.6386H255.605C255.732 26.6386 255.83 26.5398 255.83 26.4128V24.6633C255.83 24.5363 255.732 24.4375 255.605 24.4375H251.344C251.273 24.4375 251.231 24.3811 251.231 24.3246V13.5451C251.231 13.4181 251.132 13.3193 251.005 13.3193H249.114C248.987 13.3193 248.889 13.4181 248.889 13.5451V26.4128C248.889 26.5398 248.987 26.6386 249.114 26.6386Z" fill="#E40422"/>
<path d="M283.682 -0.000101617H203.696L-0.000183105 -0.0283203V39.9717L203.696 39.9999H204.501H283.696H323.696V-0.000101617H283.682ZM203.696 39.1957L0.80405 39.1674V0.775912L203.696 0.804131V39.1957ZM283.682 39.1957H204.487V0.804131H283.682V39.1957ZM322.878 39.1957H284.487V0.804131H322.878V39.1957Z" fill="black"/>
<path d="M295.012 19.7388C295.012 19.7388 295.69 20.1338 295.831 20.2326L296.875 20.8534C297.03 20.9522 297.228 20.9804 297.411 20.9381L301.559 20.1056C301.658 21.7 302.067 23.0121 302.067 23.0121C301.319 23.7317 300.289 25.1003 299.951 26.991C299.753 28.1056 299.81 29.1215 300.12 30.3208C299.542 30.349 298.977 30.4337 298.512 30.7582C298.074 31.0686 297.975 31.6188 297.975 31.8869L301.221 31.901H301.489C301.827 31.901 301.912 31.5624 301.912 31.5624C301.94 31.4636 301.954 31.3225 301.968 31.2238C302.067 30.5748 302.152 29.8975 302.73 28.7405C303.196 27.7952 304.014 26.9628 304.014 26.9628C304.014 26.9628 305.383 28.9804 307.683 30.3631C307.245 30.3913 306.667 30.5324 306.328 30.73C305.792 31.0263 305.637 31.633 305.651 31.9293H309.009C309.235 31.9293 309.432 31.774 309.503 31.5765C309.517 31.5624 309.517 31.5342 309.517 31.506C309.517 31.4919 309.517 31.4778 309.531 31.4636C309.531 31.4354 309.531 31.3931 309.531 31.3508C309.531 31.3508 308.825 26.7088 308.501 24.7617C308.6 24.7476 308.642 24.7335 308.642 24.7335C308.952 24.677 309.065 24.3243 308.924 24.0986C308.134 22.73 307.852 21.0368 307.852 19.3578C307.852 18.3137 308.021 17.3261 308.346 16.3807C308.36 16.3243 308.388 16.2679 308.402 16.2255C308.416 16.1973 308.43 16.1268 308.445 16.1127C308.656 15.6471 309.037 14.6453 309.15 13.5166C309.249 12.5994 309.122 11.8375 308.967 11.1321C308.896 10.7934 308.698 10.215 308.572 9.961C308.557 9.91867 308.529 9.89045 308.515 9.84812C308.797 9.56593 308.854 9.10033 308.642 8.71937C308.388 8.26787 307.852 8.09856 307.457 8.32431C307.415 8.35253 307.316 8.42308 307.273 8.4513C307.203 8.39486 307.161 8.36664 307.161 8.36664C307.161 8.36664 307.048 8.29609 306.949 8.23966L306.907 8.22555C306.497 8.04212 306.06 7.94336 305.58 7.94336C305.355 7.94336 305.129 7.97158 304.903 8.01391C304.423 8.11267 304 8.3102 303.619 8.59239C303.422 8.64883 303.21 8.66294 303.21 8.66294L302.674 8.69115C302.42 8.70526 302.138 8.69115 302.138 8.69115C302.011 8.69115 301.912 8.78992 301.912 8.9169C301.912 8.93101 301.997 9.6647 301.997 9.6647C302.011 9.84812 302.095 10.0174 302.251 10.1162L302.265 10.1303C302.321 10.1585 302.335 10.1867 302.349 10.215C302.406 10.3702 302.533 10.5395 302.603 10.5818C302.646 10.61 302.702 10.5959 302.702 10.5536C302.801 10.1585 303.041 10.5818 303.506 10.3419C303.619 10.2855 303.69 10.5677 303.633 10.6806L303.591 10.7934C303.492 11.0333 303.28 11.2026 303.027 11.2449C302.829 11.2732 302.702 11.2873 302.716 11.3296C302.744 11.5554 302.716 11.7529 302.942 11.894C303.012 11.9363 303.041 11.9363 303.041 11.9363C303.393 12.0351 304.423 12.4301 303.111 13.9822C303.111 13.9822 302.984 14.1233 302.885 14.2643C302.857 14.3067 302.829 14.349 302.815 14.3913L302.787 14.4478L298.836 12.9663C298.723 12.924 298.568 12.797 298.497 12.6841L298.102 12.021C297.863 11.6823 297.651 11.5554 297.228 11.5271C296.931 11.4989 296.677 11.5271 296.677 11.5271C296.564 11.5271 296.494 11.5554 296.466 11.6259C296.437 11.6964 296.437 11.8799 296.55 12.1197L296.889 12.7405C296.917 12.7829 297.34 13.7423 297.34 13.7423C297.383 13.8552 297.453 13.9681 297.552 14.0386C297.566 14.0527 301.602 17.1003 301.602 17.1003L297.326 19.2308C297.199 19.3014 297.058 19.3155 296.917 19.2732C296.762 19.2308 296.536 19.1603 296.536 19.1603C295.831 18.8499 295.309 19.0615 294.998 19.3296L294.871 19.4425C294.829 19.5271 294.885 19.6823 295.012 19.7388Z" fill="black"/>
<path d="M17.3402 21.6012V19.8657C17.3402 19.7387 17.4389 19.64 17.5659 19.64H23.3366C23.4636 19.64 23.5624 19.7105 23.5624 19.8657C23.4354 24.282 20.7828 27.0051 16.9451 27.0051C12.9663 27.0051 10.0033 24.1691 10.0033 19.9786C10.0033 15.7881 12.9804 12.9521 16.9733 12.9521C19.2731 12.9521 21.2343 13.9257 22.4336 15.5342C22.5324 15.6611 22.5042 15.7599 22.3913 15.8587L20.8675 17.0015C20.7546 17.1003 20.6417 17.058 20.543 16.9451C19.7246 15.8587 18.4548 15.2661 16.9592 15.2661C14.2361 15.2661 12.4442 17.2132 12.4442 19.9645C12.4442 22.7158 14.2502 24.6629 16.931 24.6629C18.9627 24.6629 20.3596 23.6329 20.8111 21.9398C20.8252 21.8693 20.7969 21.8128 20.7123 21.8128H17.5518C17.4389 21.8269 17.3402 21.7282 17.3402 21.6012Z" fill="black"/>
<path d="M26.37 13.3193H33.2836C33.4106 13.3193 33.5094 13.4181 33.5094 13.5451V15.2946C33.5094 15.4216 33.4106 15.5204 33.2836 15.5204H28.5852C28.5288 15.5204 28.4723 15.5627 28.4723 15.6333V18.695C28.4723 18.7655 28.5147 18.8079 28.5852 18.8079H33.2836C33.4106 18.8079 33.5094 18.9066 33.5094 19.0336V20.7691C33.5094 20.8961 33.4106 20.9948 33.2836 20.9948H28.5852C28.5288 20.9948 28.4723 21.0371 28.4723 21.1077V24.3105C28.4723 24.367 28.5147 24.4234 28.5852 24.4234H33.2836C33.4106 24.4234 33.5094 24.5222 33.5094 24.6491V26.3987C33.5094 26.5257 33.4106 26.6245 33.2836 26.6245H26.37C26.2431 26.6245 26.1443 26.5257 26.1443 26.3987V13.5451C26.1443 13.4181 26.2289 13.3193 26.37 13.3193Z" fill="black"/>
<path d="M36.6276 26.4269V13.531C36.6276 13.4181 36.6981 13.3193 36.8392 13.3193H39.1249C39.2378 13.3193 39.3366 13.3758 39.393 13.4745L42.4829 18.7232C42.5817 18.8784 42.6099 18.8784 42.7087 18.7232L45.7986 13.4745C45.8551 13.3758 45.9538 13.3193 46.0667 13.3193H48.3524C48.4794 13.3193 48.5641 13.4181 48.5641 13.531V26.441C48.5641 26.5539 48.4935 26.6527 48.3524 26.6527H46.4477C46.3207 26.6527 46.236 26.5539 46.236 26.441V17.4675C46.236 17.3546 46.1373 17.2982 46.0667 17.4252L42.8921 22.5327C42.7228 22.8008 42.4971 22.8008 42.3277 22.5327L39.1531 17.4252C39.0826 17.2982 38.9838 17.3546 38.9838 17.4675V26.4269C38.9838 26.5398 38.9133 26.6386 38.7722 26.6386H36.8674C36.7122 26.6386 36.6276 26.5398 36.6276 26.4269Z" fill="black"/>
<path d="M52.3312 13.3193H59.2448C59.3718 13.3193 59.4706 13.4181 59.4706 13.5451V15.2946C59.4706 15.4216 59.3718 15.5204 59.2448 15.5204H54.5464C54.49 15.5204 54.4335 15.5627 54.4335 15.6333V18.695C54.4335 18.7655 54.4758 18.8079 54.5464 18.8079H59.2448C59.3718 18.8079 59.4706 18.9066 59.4706 19.0336V20.7691C59.4706 20.8961 59.3718 20.9948 59.2448 20.9948H54.5464C54.49 20.9948 54.4335 21.0371 54.4335 21.1077V24.3105C54.4335 24.367 54.4758 24.4234 54.5464 24.4234H59.2448C59.3718 24.4234 59.4706 24.5222 59.4706 24.6491V26.3987C59.4706 26.5257 59.3718 26.6245 59.2448 26.6245H52.3312C52.2042 26.6245 52.1055 26.5257 52.1055 26.3987V13.5451C52.1055 13.4181 52.2042 13.3193 52.3312 13.3193Z" fill="black"/>
<path d="M64.9167 13.5451V26.4128C64.9167 26.5398 64.8179 26.6386 64.691 26.6386H62.8285C62.7015 26.6386 62.6028 26.5398 62.6028 26.4128V13.5451C62.6028 13.4181 62.7015 13.3193 62.8285 13.3193H64.691C64.8179 13.3193 64.9167 13.4181 64.9167 13.5451Z" fill="black"/>
<path d="M76.303 22.307V13.5451C76.303 13.4181 76.4018 13.3193 76.5288 13.3193H78.3912C78.5182 13.3193 78.617 13.4181 78.617 13.5451V26.4128C78.617 26.5398 78.5182 26.6386 78.3912 26.6386H76.3312C76.1196 26.6386 76.0067 26.5821 75.8939 26.3846L70.9274 17.6086C70.8709 17.4957 70.8004 17.538 70.8004 17.6509V26.4128C70.8004 26.5398 70.7016 26.6386 70.5746 26.6386H68.7122C68.5852 26.6386 68.4865 26.5398 68.4865 26.4128V13.5451C68.4865 13.4181 68.5852 13.3193 68.7122 13.3193H70.7722C70.9838 13.3193 71.0967 13.3758 71.2096 13.5733L76.176 22.3493C76.2184 22.4481 76.303 22.4199 76.303 22.307Z" fill="black"/>
<path d="M81.326 23.9998C81.2695 23.8728 81.3259 23.7741 81.4529 23.7176L83.2166 22.9981C83.3436 22.9416 83.4706 22.9981 83.4988 23.125C83.8374 24.1691 84.6981 24.7053 85.7845 24.7053C87.1531 24.7053 87.8727 23.9857 87.8727 22.9557C87.8727 21.8693 87.2096 21.3049 86.0244 21.0651L85.0649 20.8958C82.9909 20.5148 81.5799 19.0898 81.5799 16.931C81.5799 14.8146 83.273 12.9663 85.8833 12.9663C87.8586 12.9663 89.3401 14.0527 90.0314 15.6753C90.0879 15.8023 90.0314 15.9011 89.9044 15.9575L88.1408 16.663C88.0138 16.7194 87.915 16.6771 87.8586 16.5501C87.4917 15.7176 86.7722 15.1815 85.8833 15.1815C84.7263 15.1815 84.0349 15.9011 84.0349 16.8605C84.0349 17.6788 84.5852 18.2996 85.6152 18.5113L86.5887 18.6806C88.5076 19.0474 90.3418 20.3032 90.3418 22.7723C90.3418 25.058 88.6487 26.991 85.7986 26.991C83.7104 27.0051 82.0314 25.8623 81.326 23.9998Z" fill="black"/>
<path d="M99.4423 13.6015L103.111 26.4128C103.153 26.568 103.068 26.6386 102.927 26.6386H100.952C100.839 26.6386 100.74 26.5821 100.698 26.4692L100.035 24.113C99.9926 23.986 99.9361 23.9437 99.8515 23.9437H95.012C94.9132 23.9437 94.8568 23.986 94.8285 24.113L94.1654 26.4692C94.1231 26.5821 94.0384 26.6386 93.9114 26.6386H91.9361C91.7809 26.6386 91.7104 26.568 91.7527 26.4128L95.4211 13.6015C95.4776 13.3758 95.5904 13.3193 95.788 13.3193H99.1037C99.273 13.3193 99.4 13.3758 99.4423 13.6015ZM95.6187 21.7426H99.2307C99.3012 21.7426 99.3435 21.7003 99.3294 21.6156L97.6363 15.6615C97.6222 15.5909 97.5799 15.5486 97.5234 15.5486H97.34C97.2836 15.5486 97.2412 15.5909 97.2271 15.6615L95.534 21.6156C95.5058 21.7144 95.5481 21.7426 95.6187 21.7426Z" fill="black"/>
<path d="M105.509 26.4269V13.531C105.509 13.4181 105.58 13.3193 105.721 13.3193H108.007C108.12 13.3193 108.218 13.3758 108.275 13.4745L111.365 18.7232C111.463 18.8784 111.492 18.8784 111.59 18.7232L114.68 13.4745C114.737 13.3758 114.836 13.3193 114.948 13.3193H117.234C117.361 13.3193 117.446 13.4181 117.446 13.531V26.441C117.446 26.5539 117.375 26.6527 117.234 26.6527H115.329C115.202 26.6527 115.118 26.5539 115.118 26.441V17.4675C115.118 17.3546 115.019 17.2982 114.948 17.4252L111.746 22.5327C111.576 22.8008 111.351 22.8008 111.181 22.5327L108.007 17.4252C107.936 17.2982 107.837 17.3546 107.837 17.4675V26.4269C107.837 26.5398 107.767 26.6386 107.626 26.6386H105.721C105.58 26.6386 105.509 26.5398 105.509 26.4269Z" fill="black"/>
<path d="M136.056 19.9789C136.056 24.0142 133.375 26.6386 129.622 26.6386H125.587C125.46 26.6386 125.361 26.5398 125.361 26.4128V13.5451C125.361 13.4181 125.46 13.3193 125.587 13.3193H129.622C133.375 13.3193 136.056 15.9437 136.056 19.9789ZM127.802 24.4375H129.382C131.555 24.4375 133.615 23.3088 133.615 19.9789C133.615 16.6491 131.541 15.5204 129.382 15.5204H127.802C127.746 15.5204 127.689 15.5627 127.689 15.6333V24.3105C127.675 24.3952 127.717 24.4375 127.802 24.4375Z" fill="black"/>
<path d="M141.164 13.5451V26.4128C141.164 26.5398 141.065 26.6386 140.938 26.6386H139.075C138.949 26.6386 138.85 26.5398 138.85 26.4128V13.5451C138.85 13.4181 138.949 13.3193 139.075 13.3193H140.938C141.065 13.3193 141.164 13.4181 141.164 13.5451Z" fill="black"/>
<path d="M151.266 21.6012V19.8657C151.266 19.7387 151.365 19.64 151.492 19.64H157.262C157.389 19.64 157.488 19.7105 157.488 19.8657C157.361 24.282 154.709 27.0051 150.871 27.0051C146.892 27.0051 143.929 24.1691 143.929 19.9786C143.929 15.7881 146.906 12.9521 150.899 12.9521C153.199 12.9521 155.16 13.9257 156.359 15.5342C156.458 15.6611 156.43 15.7599 156.317 15.8587L154.793 17.0015C154.68 17.1003 154.568 17.058 154.469 16.9451C153.65 15.8587 152.381 15.2661 150.885 15.2661C148.162 15.2661 146.37 17.2132 146.37 19.9645C146.37 22.7158 148.176 24.6629 150.857 24.6629C152.889 24.6629 154.285 23.6329 154.737 21.9398C154.751 21.8693 154.723 21.8128 154.638 21.8128H151.478C151.365 21.8269 151.266 21.7282 151.266 21.6012Z" fill="black"/>
<path d="M162.384 13.5451V26.4128C162.384 26.5398 162.285 26.6386 162.158 26.6386H160.296C160.169 26.6386 160.07 26.5398 160.07 26.4128V13.5451C160.07 13.4181 160.169 13.3193 160.296 13.3193H162.158C162.285 13.3193 162.384 13.4181 162.384 13.5451Z" fill="black"/>
<path d="M173.855 13.5451V15.2946C173.855 15.4216 173.756 15.5204 173.629 15.5204H170.539C170.469 15.5204 170.426 15.5627 170.426 15.6333V26.4128C170.426 26.5398 170.328 26.6386 170.201 26.6386H168.338C168.211 26.6386 168.113 26.5398 168.113 26.4128V15.6333C168.113 15.5768 168.07 15.5204 168 15.5204H164.91C164.783 15.5204 164.684 15.4216 164.684 15.2946V13.5451C164.684 13.4181 164.783 13.3193 164.91 13.3193H173.629C173.77 13.3193 173.855 13.4181 173.855 13.5451Z" fill="black"/>
<path d="M181.516 13.6015L185.185 26.4128C185.227 26.568 185.142 26.6386 185.001 26.6386H183.026C182.913 26.6386 182.814 26.5821 182.772 26.4692L182.109 24.113C182.067 23.986 182.01 23.9437 181.926 23.9437H177.086C176.987 23.9437 176.931 23.986 176.903 24.113L176.239 26.4692C176.197 26.5821 176.113 26.6386 175.986 26.6386H174.01C173.855 26.6386 173.784 26.568 173.827 26.4128L177.495 13.6015C177.552 13.3758 177.665 13.3193 177.862 13.3193H181.178C181.347 13.3193 181.46 13.3758 181.516 13.6015ZM177.693 21.7426H181.305C181.375 21.7426 181.418 21.7003 181.404 21.6156L179.71 15.6615C179.696 15.5909 179.654 15.5486 179.598 15.5486H179.414C179.358 15.5486 179.315 15.5909 179.301 15.6615L177.608 21.6156C177.58 21.7144 177.608 21.7426 177.693 21.7426Z" fill="black"/>
<path d="M187.795 13.3193H189.658C189.784 13.3193 189.883 13.4181 189.883 13.5451V24.3246C189.883 24.3811 189.926 24.4375 189.996 24.4375H194.257C194.384 24.4375 194.483 24.5363 194.483 24.6633V26.4128C194.483 26.5398 194.384 26.6386 194.257 26.6386H187.795C187.668 26.6386 187.569 26.5398 187.569 26.4128V13.5451C187.569 13.4181 187.668 13.3193 187.795 13.3193Z" fill="black"/>
</g>
<defs>
<clipPath id="clip0_3524_9301">
<rect width="323.683" height="40" fill="white"/>
</clipPath>
</defs>
</svg>
