<svg width="24" height="24" viewBox="0 0 24 24" fill="none" xmlns="http://www.w3.org/2000/svg">
<path d="M12.0006 7H12C11.0111 7 10.0444 7.29325 9.22215 7.84265C8.39991 8.39206 7.75904 9.17295 7.3806 10.0866C7.00217 11.0002 6.90315 12.0055 7.09608 12.9755C7.289 13.9454 7.76521 14.8363 8.46447 15.5355C9.16373 16.2348 10.0546 16.711 11.0246 16.9039C11.9945 17.0969 12.9998 16.9978 13.9134 16.6194C14.8271 16.241 15.6079 15.6001 16.1573 14.7779C16.7068 13.9556 17 12.9889 17 12V11.9994C16.9985 10.674 16.4713 9.40319 15.5341 8.46594C14.5968 7.52868 13.326 7.00148 12.0006 7ZM11.9994 17.5C10.9118 17.4999 9.84868 17.1773 8.94437 16.5731C8.0399 15.9687 7.33495 15.1098 6.91867 14.1048C6.50238 13.0998 6.39346 11.9939 6.60568 10.927C6.8179 9.86011 7.34173 8.8801 8.11091 8.11091C8.8801 7.34173 9.86011 6.8179 10.927 6.60568C11.9939 6.39346 13.0998 6.50238 14.1048 6.91867C15.1098 7.33495 15.9687 8.0399 16.5731 8.94437C17.1773 9.84868 17.4999 10.9118 17.5 11.9994C17.4983 13.4578 16.9183 14.8559 15.8871 15.8871C14.8559 16.9183 13.4578 17.4983 11.9994 17.5Z" fill="#5D508B" stroke="#5D508B"/>
<path d="M22.5 10.5H20.8645C20.5506 8.661 19.6735 6.9648 18.3544 5.64563C17.0352 4.32645 15.339 3.44938 13.5 3.13552V1.5H10.5V3.13552C8.661 3.44938 6.9648 4.32645 5.64563 5.64563C4.32645 6.9648 3.44938 8.661 3.13552 10.5H1.5V13.5H3.13552C3.44938 15.339 4.32645 17.0352 5.64563 18.3544C6.9648 19.6735 8.661 20.5506 10.5 20.8645V22.5H13.5V20.8645C15.339 20.5506 17.0352 19.6735 18.3544 18.3544C19.6735 17.0352 20.5506 15.339 20.8645 13.5H22.5V10.5ZM12 19.5C10.5166 19.5 9.06659 19.0601 7.83322 18.236C6.59985 17.4119 5.63856 16.2406 5.0709 14.8701C4.50325 13.4997 4.35472 11.9917 4.64411 10.5368C4.9335 9.08197 5.64781 7.74559 6.6967 6.6967C7.74559 5.64781 9.08197 4.9335 10.5368 4.64411C11.9917 4.35472 13.4997 4.50325 14.8701 5.0709C16.2406 5.63856 17.4119 6.59985 18.236 7.83322C19.0601 9.06659 19.5 10.5166 19.5 12C19.4977 13.9884 18.7068 15.8948 17.3008 17.3008C15.8948 18.7068 13.9884 19.4977 12 19.5Z" fill="#5D508B"/>
</svg>
